<svg width="1000" height="290" viewBox="0 0 1000 290" fill="none" xmlns="http://www.w3.org/2000/svg">
<g clip-path="url(#clip0_405_7)">
<path d="M940.17 23.0298C922.53 23.0298 910.39 37.9198 910.39 64.9498C910.39 91.9798 922.53 106.87 940.17 106.87C957.81 106.87 969.94 91.9798 969.94 64.9498C969.94 37.9198 957.8 23.0298 940.17 23.0298ZM940.17 23.0298C922.53 23.0298 910.39 37.9198 910.39 64.9498C910.39 91.9798 922.53 106.87 940.17 106.87C957.81 106.87 969.94 91.9798 969.94 64.9498C969.94 37.9198 957.8 23.0298 940.17 23.0298ZM793.57 0.529785V248.7H999.9V0.529785H793.57ZM886.54 235.53H815.57V228.21L857.64 187.29C869.05 176.09 871.22 169.35 871.22 162.46C871.22 150.83 862.98 143.64 847.52 143.64C835.67 143.64 826.56 147.24 819.91 154.85L812.55 148.52C820.35 139.34 832.92 134.16 848.4 134.16C868.92 134.16 881.93 144.51 881.93 161.3C881.93 170.93 878.89 179.54 865.31 192.74L830.91 226.34H886.56V235.53H886.54ZM887.41 116.43H816.44V108.94L858.51 67.0998C869.92 55.6598 872.09 48.7598 872.09 41.7098C872.09 29.8198 863.85 22.4798 848.39 22.4798C836.53 22.4798 827.43 26.1498 820.78 33.9298L813.4 27.4698C821.21 18.0698 833.79 12.7798 849.25 12.7798C869.77 12.7798 882.79 23.3498 882.79 40.5298C882.79 50.3598 879.75 59.1698 866.17 72.6798L831.77 107.03H887.42V116.41L887.41 116.43ZM940.17 13.4798C963.58 13.4798 980.64 32.7098 980.64 64.9398C980.64 97.1698 963.58 116.4 940.17 116.4C916.76 116.4 899.83 97.1698 899.83 64.9398C899.83 32.7098 916.74 13.4798 940.17 13.4798ZM944.21 235.06C929.62 235.06 915.59 230.07 907.79 222.23L912.85 214.1C919.36 220.8 931.07 225.65 944.21 225.65C960.98 225.65 970.23 217.95 970.23 205.54C970.23 193.13 961.71 185.7 942.92 185.7H935.69V178.15L963.73 143.49H911.98V134.35H977.04V141.63L948.42 177.15C970.1 178.28 980.94 189.56 980.94 205.54C980.94 221.52 968.65 235.06 944.22 235.06H944.21ZM940.17 106.85C957.8 106.85 969.94 91.9598 969.94 64.9298C969.94 37.8998 957.8 23.0098 940.17 23.0098C922.54 23.0098 910.39 37.8998 910.39 64.9298C910.39 91.9598 922.53 106.85 940.17 106.85ZM940.17 23.0198C922.53 23.0198 910.39 37.9098 910.39 64.9398C910.39 91.9698 922.53 106.86 940.17 106.86C957.81 106.86 969.94 91.9698 969.94 64.9398C969.94 37.9098 957.8 23.0198 940.17 23.0198ZM940.17 23.0198C922.53 23.0198 910.39 37.9098 910.39 64.9398C910.39 91.9698 922.53 106.86 940.17 106.86C957.81 106.86 969.94 91.9698 969.94 64.9398C969.94 37.9098 957.8 23.0198 940.17 23.0198Z" fill="white"/>
<path d="M0.0998421 104.29L8.04984 86.6601C16.5798 92.8701 29.2998 97.2101 41.4398 97.2101C55.3198 97.2101 60.9498 92.5801 60.9498 86.3701C60.9498 67.4401 2.11984 80.4401 2.11984 42.8601C2.11984 25.6601 15.9998 11.3501 44.7598 11.3501C57.4798 11.3501 70.4898 14.3901 79.8798 20.3101L72.6498 38.0901C63.2598 32.7401 53.5698 30.1401 44.6098 30.1401C30.7298 30.1401 25.3798 35.3401 25.3798 41.7001C25.3798 60.3501 84.2098 47.4801 84.2098 84.6301C84.2098 101.54 70.1898 116 41.2798 116C25.2398 116 9.04984 111.23 0.0898438 104.29H0.0998421Z" fill="white"/>
<path d="M100.27 13.0801H123.69V114.26H100.27V13.0801Z" fill="white"/>
<path d="M240.47 86.6599C240.47 104.15 226.6 114.27 200 114.27H147.68V13.0898H197.11C222.4 13.0898 235.41 23.6398 235.41 39.3998C235.41 49.5198 230.21 57.3199 221.97 61.6599C233.24 65.2699 240.47 73.9499 240.47 86.6699V86.6599ZM170.95 30.7198V54.5699H194.22C205.64 54.5699 211.85 50.5199 211.85 42.5699C211.85 34.6199 205.64 30.7198 194.22 30.7198H170.95ZM216.92 84.1999C216.92 75.6699 210.41 71.6299 198.28 71.6299H170.96V96.6399H198.28C210.42 96.6399 216.92 92.8798 216.92 84.2098V84.1999Z" fill="white"/>
<path d="M322.71 114.26L303.2 86.0701H281.66V114.26H258.24V13.0801H302.04C329.07 13.0801 345.98 27.1001 345.98 49.7901C345.98 64.9701 338.32 76.1001 325.17 81.7301L347.86 114.25H322.71V114.26ZM300.74 32.1601H281.66V67.4301H300.74C315.05 67.4301 322.28 60.7801 322.28 49.8001C322.28 38.8201 315.05 32.1701 300.74 32.1701V32.1601Z" fill="white"/>
<path d="M431.12 92.5801H384.14L375.18 114.26H351.18L396.28 13.0801H419.4L464.64 114.26H440.07L431.11 92.5801H431.12ZM423.75 74.8001L407.71 36.0601L391.67 74.8001H423.76H423.75Z" fill="white"/>
<path d="M542.12 62.0801H563.51V103.13C552.38 111.51 537.06 115.99 522.61 115.99C490.81 115.99 467.4 94.1601 467.4 63.6701C467.4 33.1801 490.82 11.3501 523.05 11.3501C540.83 11.3501 555.57 17.4201 565.4 28.8401L550.37 42.7201C543 34.9101 534.47 31.3001 524.21 31.3001C504.55 31.3001 491.11 44.4501 491.11 63.6801C491.11 82.9101 504.55 96.0601 523.92 96.0601C530.28 96.0601 536.21 94.9001 542.13 91.7201V62.0901L542.12 62.0801Z" fill="white"/>
<path d="M663.54 95.4701V114.26H585.2V13.0801H661.66V31.8701H608.47V53.8401H655.45V72.0501H608.47V95.4701H663.54Z" fill="white"/>
<path d="M675.53 63.6701C675.53 33.1701 698.95 11.3501 730.45 11.3501C747.94 11.3501 762.54 17.7101 772.08 29.2701L757.05 43.1501C750.26 35.3401 741.73 31.3001 731.61 31.3001C712.68 31.3001 699.23 44.6001 699.23 63.6801C699.23 82.7601 712.67 96.0601 731.61 96.0601C741.73 96.0601 750.25 92.0101 757.05 84.0601L772.08 97.9401C762.54 109.65 747.94 116.01 730.31 116.01C698.95 116.01 675.53 94.1801 675.53 63.6901V63.6701Z" fill="white"/>
<path d="M316.35 193.54H290.04V219.41H277.9V193.54H251.59V182.12H277.9V156.1H290.04V182.12H316.35V193.54Z" fill="white"/>
<path d="M335.86 228.38L343.81 210.75C352.34 216.96 365.06 221.3 377.2 221.3C391.08 221.3 396.71 216.67 396.71 210.46C396.71 191.53 337.88 204.53 337.88 166.95C337.88 149.75 351.76 135.44 380.52 135.44C393.24 135.44 406.25 138.48 415.64 144.4L408.41 162.18C399.02 156.83 389.33 154.23 380.37 154.23C366.49 154.23 361.14 159.43 361.14 165.79C361.14 184.44 419.97 171.57 419.97 208.72C419.97 225.63 405.95 240.09 377.04 240.09C361 240.09 344.81 235.32 335.85 228.38H335.86Z" fill="white"/>
<path d="M528.82 210.74C528.82 228.23 514.95 238.35 488.35 238.35H436.03V137.17H485.46C510.75 137.17 523.76 147.72 523.76 163.48C523.76 173.6 518.56 181.4 510.32 185.74C521.59 189.35 528.82 198.03 528.82 210.75V210.74ZM459.3 154.8V178.65H482.57C493.99 178.65 500.2 174.6 500.2 166.65C500.2 158.7 493.99 154.8 482.57 154.8H459.3ZM505.27 208.28C505.27 199.75 498.76 195.71 486.63 195.71H459.31V220.72H486.63C498.77 220.72 505.27 216.96 505.27 208.29V208.28Z" fill="white"/>
<path d="M566.12 156.25H533.74V137.17H621.91V156.25H589.53V238.35H566.11V156.25H566.12Z" fill="white"/>
<path d="M634.49 137.17H657.91V238.35H634.49V137.17Z" fill="white"/>
<path d="M675.53 187.76C675.53 157.26 698.95 135.44 730.45 135.44C747.94 135.44 762.54 141.8 772.08 153.36L757.05 167.24C750.26 159.43 741.73 155.39 731.61 155.39C712.68 155.39 699.23 168.69 699.23 187.77C699.23 206.85 712.67 220.15 731.61 220.15C741.73 220.15 750.25 216.1 757.05 208.15L772.08 222.03C762.54 233.74 747.94 240.1 730.31 240.1C698.95 240.1 675.53 218.27 675.53 187.78V187.76Z" fill="white"/>
<path d="M559.95 275.06H545.65L542.69 281.79H538.73L550.91 254.89H554.71L566.93 281.79H562.89L559.93 275.06H559.95ZM558.6 271.99L552.8 258.81L547 271.99H558.61H558.6Z" fill="white"/>
<path d="M581.35 261.22V264.8C581.04 264.76 580.77 264.76 580.51 264.76C576.55 264.76 574.09 267.18 574.09 271.64V281.79H570.4V261.42H573.94V264.84C575.25 262.46 577.78 261.23 581.36 261.23L581.35 261.22Z" fill="white"/>
<path d="M601.99 269.49V281.79H598.49V279.1C597.26 280.94 594.99 282.02 591.8 282.02C587.19 282.02 584.27 279.56 584.27 276.02C584.27 272.75 586.39 270.06 592.46 270.06H598.3V269.33C598.3 266.22 596.5 264.41 592.84 264.41C590.42 264.41 587.96 265.26 586.39 266.6L584.85 263.83C586.96 262.14 590 261.22 593.27 261.22C598.84 261.22 601.99 263.91 601.99 269.48V269.49ZM598.3 275.56V272.72H592.61C588.96 272.72 587.92 274.14 587.92 275.87C587.92 277.91 589.61 279.17 592.42 279.17C595.23 279.17 597.38 277.9 598.3 275.56Z" fill="white"/>
<path d="M607.05 271.6C607.05 265.53 611.55 261.22 617.81 261.22C621.46 261.22 624.5 262.72 626.11 265.56L623.3 267.37C622 265.37 620 264.45 617.77 264.45C613.77 264.45 610.78 267.26 610.78 271.6C610.78 275.94 613.78 278.79 617.77 278.79C620 278.79 622 277.87 623.3 275.87L626.11 277.64C624.5 280.48 621.46 282.02 617.81 282.02C611.55 282.02 607.05 277.68 607.05 271.61V271.6Z" fill="white"/>
<path d="M647.02 269.49V281.79H643.52V279.1C642.29 280.94 640.02 282.02 636.83 282.02C632.22 282.02 629.3 279.56 629.3 276.02C629.3 272.75 631.42 270.06 637.49 270.06H643.33V269.33C643.33 266.22 641.53 264.41 637.87 264.41C635.45 264.41 632.99 265.26 631.42 266.6L629.88 263.83C631.99 262.14 635.03 261.22 638.3 261.22C643.87 261.22 647.02 263.91 647.02 269.48V269.49ZM643.33 275.56V272.72H637.64C633.99 272.72 632.95 274.14 632.95 275.87C632.95 277.91 634.64 279.17 637.45 279.17C640.26 279.17 642.41 277.9 643.33 275.56Z" fill="white"/>
<path d="M646.82 288.24L648.01 285.4C648.74 286.01 649.81 286.36 651.01 286.36C652.97 286.36 654.05 285.13 654.05 282.78V261.41H657.74V282.7C657.74 286.85 655.43 289.46 651.24 289.46C649.55 289.46 647.86 289.08 646.82 288.23V288.24ZM653.39 255.11C653.39 253.77 654.47 252.69 655.89 252.69C657.31 252.69 658.39 253.73 658.39 255.03C658.39 256.41 657.35 257.49 655.89 257.49C654.43 257.49 653.39 256.45 653.39 255.11Z" fill="white"/>
<path d="M683.75 261.42V281.79H680.25V278.72C678.75 280.83 676.21 282.03 673.33 282.03C668.06 282.03 664.57 279.15 664.57 273.15V261.43H668.26V272.73C668.26 276.73 670.26 278.72 673.76 278.72C677.6 278.72 680.06 276.34 680.06 271.96V261.43H683.75V261.42Z" fill="white"/>
<path d="M699.81 269.64H710.15V272.83H699.81V269.64Z" fill="white"/>
<path d="M724.25 278.71L725.67 275.71C727.67 277.52 731.09 278.82 734.55 278.82C739.2 278.82 741.2 277.01 741.2 274.67C741.2 268.1 724.9 272.25 724.9 262.26C724.9 258.11 728.13 254.57 735.2 254.57C738.35 254.57 741.62 255.42 743.85 256.95L742.58 260.02C740.24 258.52 737.58 257.83 735.2 257.83C730.63 257.83 728.67 259.75 728.67 262.1C728.67 268.67 744.97 264.56 744.97 274.44C744.97 278.55 741.67 282.09 734.55 282.09C730.44 282.09 726.4 280.71 724.25 278.71Z" fill="white"/>
<path d="M770.09 278.44V281.78H750.57V254.88H769.55V258.22H754.41V266.48H767.9V269.75H754.41V278.43H770.09V278.44Z" fill="white"/>
</g>
<defs>
<clipPath id="clip0_405_7">
<rect width="1000" height="290" fill="white"/>
</clipPath>
</defs>
</svg>
