<?xml version="1.0" encoding="UTF-8"?>
<svg id="Layer_1" data-name="Layer 1" xmlns="http://www.w3.org/2000/svg" viewBox="0 0 1080 1080">
  <defs>
    <style>
      .cls-1 {
        fill: #e0e3e8;
      }

      .cls-2 {
        fill: #fff;
      }

      .cls-3 {
        fill: #bac2ce;
      }

      .cls-4 {
        fill: #cbd1da;
      }

      .cls-5 {
        fill: #d3d8df;
      }

      .cls-6 {
        fill: #c1c8d2;
      }

      .cls-7 {
        fill: #bec5d0;
      }

      .cls-8 {
        fill: #b6beca;
      }

      .cls-9 {
        fill: #c6ccd6;
      }

      .cls-10 {
        fill: #2d4569;
      }

      .cls-11 {
        fill: #d2d7de;
      }

      .cls-12 {
        fill: #c9cfd8;
      }

      .cls-13 {
        fill: #f0f2f4;
      }

      .cls-14 {
        fill: #c0c7d2;
      }

      .cls-15 {
        fill: #b8c1cc;
      }

      .cls-16 {
        fill: #bec6d0;
      }

      .cls-17 {
        fill: #c4cbd5;
      }

      .cls-18 {
        fill: #e18559;
      }

      .cls-19 {
        fill: #c5ccd5;
      }

      .cls-20 {
        fill: #c3cad4;
      }

      .cls-21 {
        fill: #c4cbd4;
      }

      .cls-22 {
        fill: #c2c9d3;
      }

      .cls-23 {
        fill: #b7bfcb;
      }

      .cls-24 {
        fill: #d4d9e0;
      }

      .cls-25 {
        fill: #bdc5cf;
      }

      .cls-26 {
        fill: #b6bfcb;
      }

      .cls-27 {
        fill: #bac2cd;
      }

      .cls-28 {
        fill: #b9c1cd;
      }

      .cls-29 {
        fill: #b7c0cb;
      }

      .cls-30 {
        fill: #c6cdd6;
      }

      .cls-31 {
        fill: #bdc4cf;
      }

      .cls-32 {
        fill: #bcc4cf;
      }

      .cls-33 {
        fill: #bfc6d1;
      }

      .cls-34 {
        fill: #d0d5dd;
      }

      .cls-35 {
        fill: #c7cdd6;
      }

      .cls-36 {
        fill: #c8cfd7;
      }

      .cls-37 {
        fill: #bbc3ce;
      }

      .cls-38 {
        fill: #c4cad4;
      }

      .cls-39 {
        fill: #b8c0cc;
      }

      .cls-40 {
        fill: #d5d9e0;
      }

      .cls-41 {
        fill: #ccd1da;
      }

      .cls-42 {
        fill: #b9c2cd;
      }

      .cls-43 {
        fill: #b7c0cc;
      }

      .cls-44 {
        fill: #e1e4e9;
      }
    </style>
  </defs>
  <g>
    <path class="cls-23" d="M483.61,208.43c1.8,2.11,2.47,4.81,3.59,7.25,6.23,13.58,12.33,27.21,18.46,40.83,.24,.52,.99,1.16-.05,1.59-.99,.4-1-.57-1.24-1.1-2.39-5.35-4.74-10.71-7.12-16.06-3.26-7.33-6.75-14.58-9.72-22.03-1.38-3.45-3.47-6.68-3.91-10.5h-.01Z"/>
    <path class="cls-23" d="M487.96,346.51c1.25-4.85,3.29-9.41,5-14.09,3.41-9.36,6.88-18.7,10.56-27.96,.82-2.06,1.19-4.45,3.03-6.42,.77,2.21-.4,3.8-.99,5.35-3.3,8.78-6.73,17.51-10.16,26.24-2.21,5.64-4.49,11.26-6.75,16.89-.1,.24-.41,.4-.62,.59-.23-.17-.25-.37-.07-.59Z"/>
    <path class="cls-23" d="M540.51,211.11c-1.38,5.26-3.58,10.24-5.45,15.33-3.48,9.52-7.15,18.97-10.78,28.42-.41,1.06-.74,3.15-1.87,2.66-1.41-.61,.13-2.08,.51-3.11,3.07-8.2,6.14-16.39,9.32-24.54,2.52-6.45,5.19-12.84,7.79-19.26,.4-.07,.61,.05,.48,.5Z"/>
    <path class="cls-23" d="M543.51,344.37c-5.49-12.01-10.98-24.02-16.45-36.04-1.32-2.9-2.54-5.86-3.8-8.79-.2-.46-.57-1.02,.02-1.33,.55-.29,.93,.29,1.2,.7,.39,.61,.72,1.26,1.01,1.93,4.58,10.56,9.15,21.12,13.74,31.68,1.39,3.19,2.8,6.37,4.25,9.54,.34,.75,.56,1.49,.54,2.31-.16,.2-.33,.19-.49,.01Z"/>
    <path class="cls-39" d="M513.73,200.35c.25,3.2,.25,6.22,.42,9.21,.39,7.17,.52,14.37,.44,21.55-.09,7.56,.68,15.1,.45,22.66-.01,.51,.02,1.02-.03,1.53-.04,.52-.15,1.13-.83,1.01-.45-.08-.64-.61-.59-1.06,.43-3.27-.43-6.55,.09-9.84,.34-2.15-.3-4.34-.31-6.49-.09-12.3-.05-24.59-.04-36.89,0-.49-.15-1.02,.4-1.68Z"/>
    <path class="cls-23" d="M464.46,228.91c2.14,1.42,3.8,3.37,5.63,5.13,9.26,8.94,18.5,17.88,27.75,26.83,.31,.3,.63,.61,.89,.96,.22,.3,.3,.68-.02,.98-.32,.3-.7,.22-.99-.01-.45-.36-.86-.79-1.27-1.19-7.74-7.47-15.15-15.28-23.02-22.61-3.28-3.06-6.34-6.36-9.5-9.55-.09-.45,.08-.64,.54-.53Z"/>
    <path class="cls-29" d="M578.03,250.36c-7.91,3.58-15.81,7.18-23.72,10.74-5.99,2.7-11.98,5.39-18,8.02-.52,.23-1.29,1.37-1.78,.26-.41-.92,.68-1.28,1.39-1.6,4.11-1.84,8.21-3.69,12.34-5.49,9.49-4.13,18.98-8.23,28.48-12.34,.54-.2,1.13-.58,1.3,.41Z"/>
    <path class="cls-29" d="M568.47,331.23c-6.7-6.45-13.4-12.9-20.1-19.35-4.4-4.24-8.8-8.47-13.19-12.72-.51-.5-.99-1.04-1.68-1.77,1.33-.26,2.19,.27,2.85,.92,10.54,10.42,21.05,20.86,31.57,31.31,.36,.36,.66,.77,.99,1.15,.15,.44-.06,.53-.44,.46Z"/>
    <path class="cls-26" d="M560.17,231.65c-1.81,2.96-4.55,5.07-6.87,7.55-6.88,7.36-13.99,14.51-21,21.74-.35,.37-.71,.73-1.08,1.08-.37,.35-.81,.84-1.31,.46-.69-.53-.05-1.13,.27-1.48,1.21-1.35,2.51-2.62,3.79-3.92,4.83-4.92,9.76-9.73,14.46-14.78,3.59-3.87,7.51-7.43,11.28-11.13,.4-.07,.61,.04,.46,.49Z"/>
    <path class="cls-29" d="M444.7,250.83c14.32,5.37,28.65,10.73,43.32,16.23-2.26,.84-3.98,.14-5.65-.51-8.55-3.33-17.07-6.72-25.61-10.08-3.77-1.49-7.55-2.95-11.31-4.46-.3-.12-.5-.49-.75-.74-.11-.1-.15-.19-.11-.29,.04-.1,.08-.14,.11-.14Z"/>
    <path class="cls-23" d="M473.31,320.55c-.31-.76,.1-1.11,.44-1.47,5.96-6.14,11.93-12.27,17.89-18.43,1.96-2.03,3.84-4.13,5.81-6.15,.5-.52,1.17-1.53,1.92-.79,.6,.59-.29,1.26-.77,1.76-7.86,8.01-15.72,16.02-23.58,24.02-.46,.47-.93,.92-1.71,1.05Z"/>
    <path class="cls-29" d="M456.93,303.71c5.34-4,33.57-15.86,36.46-15.45-12.35,5.44-24.2,10.96-36.46,15.45Z"/>
    <path class="cls-29" d="M462.24,244.66c3.81,1.65,7.11,4.16,10.62,6.3,7.17,4.39,14.27,8.9,21.39,13.36,.37,.23,.79,.41,1.09,.71,.36,.36,1.2,.63,.65,1.35-.44,.57-.92,.3-1.49-.08-2.6-1.72-5.27-3.34-7.88-5.04-8.01-5.22-16-10.46-24-15.7-.35-.23-.64-.57-.96-.85,.17-.22,.36-.24,.57-.06Z"/>
    <path class="cls-43" d="M525.6,219.81c-.12,4.72-1.27,9.28-2.1,13.89-1.07,5.89-2.2,11.78-3.13,17.7-.25,1.58-1.06,3.01-1.01,4.65,.01,.5-.45,.97-1.08,.79-.7-.2-.46-.72-.36-1.24,1.66-8.13,3.43-16.24,4.87-24.41,.6-3.4,1.81-6.69,1.94-10.18,.02-.64,.22-1.3,.84-1.69,.12,.1,.17,.21,.13,.32-.04,.11-.08,.16-.11,.16Z"/>
    <path class="cls-29" d="M480.05,227.26c4.06,4.75,7.17,10.17,10.88,15.18,3.52,4.76,6.72,9.75,10.05,14.66,.57,.84,1.82,2.17,1.03,2.67-1.19,.76-1.6-1.05-2.14-1.84-5.82-8.55-11.6-17.15-17.35-25.74-1-1.49-1.86-3.06-2.79-4.59-.19-.4,0-.44,.32-.33Z"/>
    <path class="cls-27" d="M515.14,346.09c-.32-.9-.45-1.81-.45-2.77,0-6.17-.08-12.34-.05-18.52,.03-7.1-.37-14.18-.67-21.26-.04-.85,.18-1.71,.25-2.57,.04-.47,.18-.93,.71-.88,.53,.05,.59,.57,.59,1.02,0,2.61,0,5.23,0,7.84,0,2.61,.01,5.23,.02,7.84,.34,.61,.19,1.28,.19,1.92,.01,8.46,.02,16.93-.03,25.39,0,.65,.58,1.61-.57,1.98Z"/>
    <path class="cls-29" d="M561.01,246.9c-6.17,4.31-12.32,8.66-18.52,12.93-2.74,1.88-5.29,4.05-8.29,5.54-.52,.26-1.06,1.21-1.63,.38-.53-.77,.43-1.06,.91-1.4,3.62-2.53,7.23-5.09,10.91-7.54,5.23-3.49,10.52-6.89,15.79-10.34,.53-.34,.86-.3,.83,.43Z"/>
    <path class="cls-29" d="M546.17,325.12c-4.66-5.94-8.64-12.35-13-18.5-1.93-2.72-3.79-5.49-5.7-8.22-.48-.69-1.58-1.5-.71-2.17,.84-.65,1.47,.61,1.9,1.25,3.38,4.98,6.7,10,10.04,15.01,2.46,3.68,4.92,7.35,7.37,11.03,.23,.35,.35,.77,.52,1.16,.17,.44-.05,.51-.42,.45Z"/>
    <path class="cls-29" d="M545.3,230.33c-2.69,4.45-5.35,8.91-8.09,13.33-3.01,4.84-6.08,9.64-9.15,14.45-.42,.66-.69,1.99-1.71,1.38-.93-.56,.08-1.39,.47-2.01,5.56-8.64,11.13-17.28,16.7-25.91,.39-.6,.85-1.16,1.28-1.74,.42-.08,.61,.05,.48,.5Z"/>
    <path class="cls-39" d="M526.5,334.32c-.77-1.19-.34-2.67-.92-3.91-.48-.67,.07-1.52-.39-2.2-1.87-7.11-3.5-14.27-4.9-21.49-.37-1.91-.95-3.77-1.46-5.65-.18-.65-.47-1.46,.23-1.75,.88-.36,1.04,.64,1.15,1.17,.98,4.42,1.86,8.87,2.82,13.29,.78,3.59,1.72,7.14,2.39,10.75,.61,3.24,1.47,6.45,1.52,9.77-.15,.18-.29,.18-.45,0Z"/>
    <path class="cls-39" d="M504.13,330.76c.44-3.8,1.41-7.51,1.93-11.28,.82-5.92,2.68-11.65,3.02-17.65,.02-.42,.18-.86,.4-1.22,.23-.4,.25-1.2,.9-1.03,.59,.16,.71,.79,.59,1.44-.42,2.19-.75,4.41-1.19,6.6-1.11,5.49-2.27,10.97-3.4,16.45-.61,2.97-1.2,5.94-1.8,8.91-1.13-.55-.53-1.44-.44-2.22Z"/>
    <path class="cls-29" d="M467.2,310.06c4.52-3.71,9.49-6.8,14.22-10.22,4.33-3.13,8.81-6.06,13.27-9.02,.49-.33,1.14-1.45,1.76-.54,.54,.79-.34,1.27-1.06,1.75-7.48,4.98-14.91,10.02-22.37,15.03-1.81,1.22-3.65,2.4-5.47,3.59-.12-.2-.24-.4-.36-.59Z"/>
    <path class="cls-29" d="M484.89,324.21c2.5-5.09,5.79-9.71,8.76-14.53,2.24-3.64,4.53-7.25,6.81-10.86,.39-.61,.77-1.24,1.24-1.79,.31-.37,.75-.82,1.28-.3,.42,.41,.06,.79-.18,1.16-4.85,7.49-9.7,14.99-14.56,22.47-.95,1.46-1.94,2.88-2.91,4.32-.37,.05-.6-.03-.43-.47Z"/>
    <path class="cls-39" d="M503.27,225.92c1.72,5.31,2.55,10.84,3.96,16.22,.98,3.74,1.31,7.64,2.6,11.31,.24,.67,.33,1.41,.4,2.12,.04,.4,.17,.98-.36,1.13-.68,.21-.8-.45-1-.89-1-2.21-.99-4.66-1.56-6.98-1.35-5.45-2.46-10.96-3.65-16.45-.31-1.41-.56-2.84-.84-4.25-.11-.79-.69-1.68,.44-2.22Z"/>
    <path class="cls-28" d="M550.95,300.65c5.77,3.66,11.68,7.11,17.05,11.36,.12,.09,.17,.17,.12,.26-.04,.09-.08,.13-.13,.13-6.45-3.65-12.81-7.45-18.87-11.73,.6-.34,1.21-.32,1.82-.02Z"/>
    <path class="cls-38" d="M515.14,346.09c.66-.67,.37-1.51,.38-2.28,.03-9,.02-18.01,.03-27.01,.58,.52,.4,1.21,.4,1.84,0,11.49,0,22.97-.01,34.46-.27,.27-.54,.26-.81,0,0-2.34,0-4.67,0-7.01Z"/>
    <path class="cls-3" d="M570.19,299.38c4.6,.89,8.7,3.1,13,4.81-.14,.35-.27,.71-.76,.4-4.08-1.47-8.16-2.94-12.24-4.41-.27-.27-.27-.53,0-.8Z"/>
    <path class="cls-7" d="M560.17,231.65c-.15-.16-.31-.33-.46-.49,2.13-2.53,4.5-4.82,6.96-7.02,.42-.11,.59,.04,.47,.47-2.26,2.41-4.41,4.93-6.97,7.03Z"/>
    <path class="cls-16" d="M484.89,324.21c.14,.16,.29,.32,.43,.47-1.62,2.88-3.4,5.66-5.63,8.15,1.41-3.07,2.95-6.06,5.2-8.62Z"/>
    <path class="cls-14" d="M504.13,330.76c.16,.74-.26,1.59,.44,2.22-.73,2.45-.38,5.16-1.76,7.46-.14,.14-.28,.13-.42-.01,.58-3.22,1.16-6.45,1.74-9.67Z"/>
    <path class="cls-7" d="M464.46,228.91c-.18,.18-.36,.35-.54,.53-1.98-1.66-3.8-3.48-5.26-5.62-.23-.18-.22-.35,.03-.5,2.02,1.76,4.15,3.41,5.76,5.59Z"/>
    <path class="cls-37" d="M561.01,246.9c-.17-.34-.48-.43-.83-.43,1.76-1.7,3.99-2.69,6.02-3.99,.44-.14,.56,.06,.48,.46-1.89,1.32-3.78,2.64-5.67,3.95Z"/>
    <path class="cls-14" d="M545.3,230.33c-.16-.17-.32-.33-.48-.5,.64-1.84,1.77-3.38,3.07-4.8,.41-.1,.62,0,.45,.46-.9,1.68-1.63,3.47-3.04,4.84Z"/>
    <path class="cls-32" d="M578.03,250.36c-.32-.49-.83-.39-1.3-.41,2.02-.8,3.84-2.15,6.13-2.17l-.02-.02c-1.21,1.6-3.31,1.55-4.81,2.61Z"/>
    <path class="cls-22" d="M540.51,211.11c-.16-.17-.32-.33-.48-.5,.74-1.45,.58-3.35,2.18-4.37h-.01c.1,1.84-.62,3.42-1.69,4.87Z"/>
    <path class="cls-20" d="M487.96,346.51c.02,.2,.04,.39,.07,.59,.13,1.53-.5,2.78-1.55,3.9,.07-1.63,.35-3.18,1.48-4.49Z"/>
    <path class="cls-39" d="M502.41,222.41c.15,.43,.31,.85,.46,1.28,.14,.69,.73,1.52-.51,1.83-.59-1.4-.84-2.86-.84-4.38-.13-.66-.7-1.42,.43-1.77,.03,.12,.05,.25,.05,.38,.5,.83-.14,1.84,.41,2.66Z"/>
    <path class="cls-32" d="M526.5,334.32c.15,0,.3,0,.45,0,1.41,1.52,.9,3.49,1.26,5.26l.02-.02c-1.35-.56-.74-1.84-1.02-2.79-.24-.81-.47-1.63-.71-2.44Z"/>
    <path class="cls-31" d="M525.6,219.81c0-.16-.01-.32-.02-.48,.11-1.21-.2-2.45,.4-3.63,.71,1.41,.51,2.78-.38,4.11Z"/>
    <path class="cls-22" d="M568.47,331.23c.15-.15,.3-.31,.44-.46,1,.74,1.89,1.6,2.61,2.61,.12,.13,.15,.25,.1,.36-.05,.11-.1,.17-.14,.17-1.25-.62-2.3-1.46-3.02-2.68Z"/>
    <path class="cls-6" d="M550.49,331.3c-.87-1.18-1.73-2.36-2.6-3.54,.05-.27,.2-.44,.47-.5,.98,1.01,1.85,2.08,2.16,3.5,.2,.2,.19,.38-.04,.54Z"/>
    <path class="cls-14" d="M548.36,327.26c-.16,.17-.31,.34-.47,.5-.72-.79-1.35-1.63-1.72-2.64,.14-.15,.28-.3,.42-.45,.87,.67,1.43,1.55,1.77,2.58Z"/>
    <path class="cls-33" d="M543.51,344.37c.16,0,.33,0,.49-.01,1.04,.76,1.25,1.98,1.68,3.08-.24,.24-.07,.68-.42,.86-.58-1.31-1.17-2.62-1.75-3.93Z"/>
    <path class="cls-19" d="M582.44,304.58c.25-.13,.51-.27,.76-.4,.8,.25,1.6,.5,2.86,.89-1.67,.66-2.69,.39-3.61-.49Z"/>
    <path class="cls-36" d="M462.24,244.66c-.19,.02-.38,.04-.57,.06-.83,0-1.53-.23-1.87-1.14,1.23-.51,1.82,.31,2.44,1.08Z"/>
    <path class="cls-25" d="M500.7,218.45c.27-1.18-.88-2.39,.01-3.67,.63,.63,.38,1.29,.42,1.89,.12,.66,.69,1.43-.43,1.79Z"/>
    <path class="cls-6" d="M500.7,218.45c.62-.48,.32-1.18,.43-1.79,.27,.9,.55,1.8,.82,2.7-.62,.47-.33,1.17-.43,1.77-.71-.76-.18-1.9-.82-2.68Z"/>
    <path class="cls-4" d="M567.14,224.61c-.16-.16-.31-.31-.47-.47,.45-.72,.98-1.34,2.07-1.77-.13,1.26-.94,1.7-1.6,2.24Z"/>
    <path class="cls-20" d="M566.68,242.94c-.16-.15-.32-.31-.48-.46,.54-.79,1.2-1.36,2.24-1.27l-.02-.02c-.12,1.04-1.09,1.24-1.74,1.75Z"/>
    <path class="cls-6" d="M502.36,225.51c.69-.46,.43-1.19,.51-1.83,.67,.65,.31,1.48,.4,2.23-.71,.63-.29,1.48-.44,2.22-.73-.77-.23-1.77-.47-2.63Z"/>
    <path class="cls-28" d="M502.4,340.43c.14,0,.28,0,.42,.01,.16,.96-.06,1.83-.68,2.75-.07-1.03-.39-1.94,.27-2.77Z"/>
    <path class="cls-12" d="M483.63,208.42c-.77-.42-1.42-.9-1.1-2.12,.99,.52,1.12,1.28,1.09,2.13,0,0,.01-.01,.01-.01Z"/>
    <path class="cls-24" d="M580.66,263.09c.8-.56,1.37-.58,2.21-.02-.81,.53-1.38,.56-2.21,.02Z"/>
    <path class="cls-19" d="M480.05,227.26c-.11,.11-.21,.22-.32,.33-.68-.4-.98-1.09-1.36-1.73-.12-.08-.17-.16-.13-.24,.04-.09,.08-.13,.12-.13,1.18,0,1.36,.96,1.69,1.78Z"/>
    <path class="cls-30" d="M571.49,333.91c.01-.18,.03-.35,.04-.53,.68,.59,1.36,1.18,2.41,2.08-1.53-.09-1.96-.87-2.45-1.56Z"/>
    <path class="cls-9" d="M527.02,211.57c.43,.71,.43,1.29-.15,2.18-.47-.9-.67-1.49,.15-2.18Z"/>
    <path class="cls-44" d="M499.89,213.64c-.72-.75-.6-1.32-.19-2.04,.71,.59,.63,1.18,.19,2.04Z"/>
    <path class="cls-17" d="M548.34,225.5c-.15-.15-.3-.31-.45-.46,.34-.6,.66-1.21,1.45-1.66,.18,1.06-.6,1.51-1,2.12Z"/>
    <path class="cls-15" d="M478.37,225.48c0,.13,0,.25,.01,.37-.42-.71-.83-1.43-1.25-2.14,1.09,.19,1.3,.9,1.24,1.77Z"/>
    <path class="cls-8" d="M444.7,250.83c0,.14,0,.29,0,.43-.84-.01-1.77,.18-2.17-.9l-.02,.03c.73,.16,1.57-.25,2.19,.44Z"/>
    <path class="cls-44" d="M543.58,202.09c.31,.14,.37,.42,.33,.71-.04,.27-.06,.64-.47,.55-.32-.08-.36-.4-.33-.69,.03-.27,.05-.6,.47-.56Z"/>
    <path class="cls-1" d="M485.33,355.29c-.03,.28-.02,.63-.41,.62-.38,0-.4-.34-.4-.63,0-.29,.02-.63,.4-.62,.38,0,.39,.34,.41,.63Z"/>
    <path class="cls-34" d="M587.2,246.22c-.48,.24-.77,.44-1.1,.52-.31,.08-.58-.15-.49-.47,.1-.35,.41-.61,.79-.55,.23,.04,.43,.26,.79,.5Z"/>
    <path class="cls-11" d="M515.13,353.1c.27,0,.54,0,.81,0,0,.88,0,1.75,0,2.63-.55-.85-.29-1.83-.81-2.63Z"/>
    <path class="cls-31" d="M442.54,250.37c-.53-.06-1.16,.24-1.62-.48,.8-.55,1.27-.28,1.6,.5,0,0,.02-.03,.02-.03Z"/>
    <path class="cls-19" d="M568,312.41c0-.13,0-.26,0-.39,.47,.39,1.25,.22,1.65,.97-.81,.4-1.24-.05-1.65-.58Z"/>
    <path class="cls-41" d="M550.95,300.65c-.61,0-1.21,.01-1.82,.02-.21-.02-.44,0-.63-.08-.2-.09-.35-.34,.03-.34,.82,0,1.71-.3,2.42,.4Z"/>
    <path class="cls-42" d="M528.2,339.57c.81,.63,.41,1.52,.41,2.32-.66-.67-.33-1.55-.39-2.34,0,0-.02,.02-.02,.02Z"/>
    <path class="cls-33" d="M582.87,247.77c.35-.92,1.01-1.02,1.92-.78-.56,.75-1.23,.81-1.94,.76,0,0,.02,.02,.02,.02Z"/>
    <path class="cls-39" d="M545.26,348.3c.01-.35,.08-.67,.42-.86,.32,.56,.58,1.13,.34,1.8-.45-.16-.59-.57-.75-.94Z"/>
    <path class="cls-6" d="M502.41,222.41c-.79-.78-.31-1.77-.41-2.66,.69,.8,.27,1.77,.41,2.66Z"/>
    <path class="cls-24" d="M589.77,306.82c-.25,.15-.4,.31-.56,.32-.3,.01-.55-.16-.44-.49,.04-.12,.34-.22,.51-.2,.15,.01,.28,.2,.5,.37Z"/>
    <path class="cls-40" d="M530.11,345.68c-.19,.08-.36,.22-.54,.23-.38,.01-.44-.3-.36-.57,.04-.14,.27-.23,.41-.34,.11,.15,.22,.3,.49,.68Z"/>
    <path class="cls-35" d="M542.21,206.24c.03-.48-.16-1,.23-1.4,.03-.03,.42,.14,.47,.28,.22,.64-.25,.88-.71,1.11,0,0,.01,.01,.01,.01Z"/>
    <path class="cls-12" d="M569.75,240.34c.05-.46,.16-.89,.74-.8,.13,.02,.36,.32,.33,.41-.2,.53-.69,.36-1.1,.38l.02,.02Z"/>
    <path class="cls-22" d="M485.73,353.46c-.17-.32-.35-.49-.32-.62,.06-.25,.19-.58,.38-.67,.45-.2,.41,.24,.37,.46-.04,.24-.23,.45-.43,.82Z"/>
    <path class="cls-27" d="M458.69,223.32c-.01,.17-.02,.33-.03,.5-.5-.13-.97-.31-1.1-.89-.02-.1,.08-.32,.15-.33,.54-.08,.61,.53,.98,.72Z"/>
    <path class="cls-6" d="M525.19,328.21c.69,.63,.31,1.46,.39,2.2-.67-.64-.31-1.46-.39-2.2Z"/>
    <path class="cls-13" d="M546.32,298.57c-.4,.33-.52,.48-.57,.46-.33-.14-.61-.35-.61-.75,0-.03,.26-.12,.36-.08,.27,.09,.52,.24,.82,.38Z"/>
    <path class="cls-26" d="M550.49,331.3c.01-.18,.03-.36,.04-.54,.38,.22,.79,.43,.71,.97-.01,.09-.21,.22-.3,.21-.35-.05-.41-.34-.45-.64Z"/>
    <path class="cls-21" d="M568.44,241.21c.21-.64,.68-.88,1.32-.87,0,0-.02-.02-.02-.02-.01,.93-.66,.9-1.31,.87,0,0,.02,.02,.02,.02Z"/>
    <path class="cls-37" d="M586.43,306.17c.58-.4,.97-.66,1.23-.36,.49,.56-.13,.5-.41,.53-.19,.02-.4-.08-.81-.17Z"/>
    <path class="cls-5" d="M439.88,249.02c-.24,.2-.36,.39-.51,.41-.15,.02-.33-.11-.5-.18,.12-.14,.23-.35,.38-.41,.13-.05,.32,.08,.63,.18Z"/>
    <path class="cls-4" d="M570.19,299.38c0,.27,0,.53,0,.8-.41,0-.98-.03-.96-.49,.02-.58,.61-.25,.96-.31Z"/>
    <path class="cls-7" d="M588.82,245.31c-.13,.07-.29,.2-.47,.22-.21,.03-.46-.05-.35-.33,.06-.16,.29-.31,.46-.35,.25-.06,.38,.12,.35,.45Z"/>
  </g>
  <g>
    <path class="cls-10" d="M1040,425.15c-2.58-1.08-5.2-2.07-7.73-3.24-15.18-7.06-30.2-14.47-45.53-21.16-21.2-9.26-40.9-21.22-60.41-33.42-34.36-21.49-69.93-40.65-106.53-57.97-12.71-6.02-25.46-11.94-38.18-17.93-6.91-3.26-14.13-4.71-21.8-4.64-6.95,.06-13.94-.22-20.85-.88-3.81-.37-7.56-1.7-11.26-2.84-19.31-5.97-38.61-11.98-57.88-18.06-6.95-2.19-14.03-3.57-21.31-3.59-13.13-.03-26.27-.22-39.38,.34-7.03,.3-14.01,2.03-21.01,3.11-10.85,1.69-21.72,3.2-32.52,5.14-4.83,.87-9.74,2.11-14.21,4.09-8.52,3.76-9.56,10.97-2.51,17.01,2.98,2.55,6.63,4.64,10.32,6,12.68,4.68,25.9,5.24,39.24,4.07,.23-.02,.44-.25,.91-.53-.01-6.89,.62-13.83,5.22-19.79-1.08,6.5-2.17,13-3.3,19.8,18.83,2.53,37.37,3.23,56.18,5-1.38-8.79,1.03-16.33,6.65-22.83,.27,.1,.54,.2,.8,.29-1.04,2.38-2.21,4.71-3.09,7.15-.96,2.64-1.96,5.32-2.39,8.07-.4,2.6-.09,5.32-.09,8.51,5.2,2.64,10.45,5.58,15.91,8.04,12.58,5.65,25.28,11.03,37.88,16.64,1.77,.79,3.01,.53,4.37-.59,4.12-3.39,7.24-7.5,9.08-12.55,.44-1.21,.87-2.42,1.44-4.03,2.31,6.05-1.27,12.73-10.37,20.14,5.84,6.55,12.46,12.09,20.44,15.82,5.09,2.38,10.29,4.54,15.48,6.71,5.7,2.39,11.25,5.04,16.04,9.04,.28,.23,.71,.29,1.34,.53-.82-8.41-4.85-15.52-8.51-23.03,2.69-.75,3.72,.67,4.5,1.92,1.55,2.49,3.12,5.04,4.18,7.75,5.47,14.08,7.15,28.51,3.42,43.35-.19,.75-.26,1.52-.48,2.84,11.3-3.57,19.56-10.35,26.21-19.44,.37,2.31,.42,2.34-.68,4.24-3.51,6.03-8.35,10.75-14.29,14.4-7.21,4.43-15.2,6.54-23.43,7.99-11.39,2.01-22.88,2.57-34.42,2.72-9.65,.12-19.3,.17-28.94,.53-14.37,.53-27.88,4.9-41.19,9.93-2.04,.77-3.86,2.1-6.46,3.55,4.89,.66,8.83,1.26,12.79,1.71,6.33,.73,10,4.05,10.53,10.52,.42,5.2,.85,10.4,1.15,15.6,.21,3.69-1.54,6.12-5.15,7.15-3.84,1.1-7.68,2.21-12.39,3.57,3.44,.71,6.14,1.49,8.9,1.82,21.53,2.54,43.07,1.66,64.62,.29,7.89-.5,15.78-.93,23.68-1.29,16.1-.73,31.71,2.17,47.23,6.12,16.99,4.32,34.04,8.47,51.19,12.12,19.01,4.05,37.89,2.51,56.29-3.57,5.3-1.75,10.24-4.59,15.33-6.96,1.79-.83,3.52-1.78,5.88-2.18-.3,.73-.38,1.74-.92,2.15-3.31,2.47-6.52,5.19-10.14,7.1-8,4.24-16.75,6.32-25.62,7.88-.65,.12-1.31,.22-2.64,.45,1.2,.74,1.86,1.3,2.62,1.6,7.99,3.16,16.22,3.22,24.53,1.71,3.82-.69,7.6-1.58,11.39-2.42,4.41-.98,8.5-.28,12.32,2.13,.9,.57,1.87,1.04,2.84,1.49,35.46,16.46,68.59,36.99,101.29,58.26,1.11,.72,2.28,1.34,3.41,2v6.43c-20.29-12.52-40.39-25.35-60.92-37.47-15.79-9.33-32.15-17.7-48.18-26.64-3.9-2.18-7.76-2.56-11.98-1.48-6.63,1.7-13.3,3.08-20.22,2.92-7.57-.17-14.53-2.09-20.72-6.59-.89-.65-2.19-1.24-3.22-1.13-15.17,1.73-29.94-.67-44.58-4.21-16.92-4.08-33.79-8.36-50.69-12.52-14.74-3.63-29.71-3.79-44.75-2.76-.89,.06-1.77,.35-2.89,.58,.23,1.5,.46,2.78,.63,4.08,.79,5.94,.45,11.77-1.95,17.35-1.84,4.28-4.89,7.32-9.25,8.98-4.56,1.74-8.74,1.03-12.31-2.29-1.65-1.54-3.21-3.27-4.47-5.14-4.5-6.65-8.65-13.51-11.51-21.22-.49-.05-1.01-.17-1.52-.15-.37,.02-.72,.24-1.26,.44,1.75,6.43,2.23,12.93,1.65,19.5-.46,5.16-1.96,9.97-4.85,14.31-2.04,3.06-4.61,5.59-7.88,7.3-4.98,2.61-9.8,1.79-13.35-2.54-1.77-2.15-3.44-4.53-4.55-7.07-4.88-11.16-9.61-22.39-14.18-33.68-.7-1.74-1.51-2.56-3.2-3.04-2.44-.7-4.89-1.46-7.17-2.54-8.61-4.06-12.63-11.32-11.99-20.81,.51-7.57,3.78-13.64,9.68-18.22,2.73-2.12,5.8-3.84,8.83-5.53,1.46-.81,2.12-1.7,2.26-3.38,.95-11.35,2.02-22.69,3.04-34.03,.03-.36-.1-.73-.23-1.6-.84,.91-1.45,1.52-2.01,2.18-5.28,6.23-10.48,12.54-15.88,18.68-2.19,2.49-3.62,5.15-4.52,8.35-2.5,8.89-5.17,17.74-8.02,26.52-1.54,4.74-4.02,9.09-7.33,12.85-4.4,4.98-9.69,8.46-16.54,8.87-6.52,.39-11.6-2.86-13.5-9.1-.92-3.02-1.45-6.34-1.31-9.48,.41-9.1,1.11-18.18,1.96-27.25,.79-8.4,1.65-16.82,3.01-25.14,.66-4.02,2.19-8,3.93-11.72,3.52-7.52,7.56-14.79,11.17-22.26,3.11-6.44,6.88-12.39,11.51-17.85,3.82-4.49,7.52-9.09,11.11-13.77,2.46-3.21,5.48-5.44,9.3-6.68,3.02-.98,6.02-2.02,9.48-3.19-.73-.45-1.01-.75-1.3-.78-14.4-1.35-28.81-2.71-43.22-3.97-2.25-.2-4.55-.01-6.81,.18-13.21,1.1-26.25,.28-38.97-3.62-3.3-1.01-6.6-2.38-9.5-4.2-2.67-1.67-5.18-3.9-7.11-6.38-4.65-6.01-3.52-13.33,2.88-17.45,3.42-2.2,7.41-3.8,11.36-4.84,5.15-1.36,10.53-1.9,15.8-2.81,10.68-1.84,21.35-3.78,32.05-5.5,4.62-.74,9.29-1.35,13.96-1.49,11.52-.35,23.04-.4,34.57-.58,9.32-.15,18.42,1.2,27.3,4.06,18.09,5.83,36.22,11.54,54.29,17.43,5.78,1.88,11.66,3.04,17.71,3.25,6.03,.21,12.06,.37,18.09,.32,6.95-.06,13.57,1.22,19.9,4.11,6.33,2.89,12.76,5.61,19.01,8.65,19.75,9.61,39.47,19.29,59.15,29.05,23.79,11.8,46.68,25.21,68.96,39.63,17.36,11.24,35.57,20.91,54.1,29.97,17.2,8.4,34.75,16.1,52.14,24.12,1.7,.78,3.36,1.67,5.03,2.5v4.02Zm-398.61-85.05c1.1,1.36,1.97,2.29,2.67,3.34,1.63,2.45,3.02,5.09,4.81,7.41,2.28,2.96,4.79,5.75,7.38,8.44,.7,.73,2.13,1.25,3.13,1.11,5.96-.83,11.9-1.8,17.83-2.86,9.33-1.66,18.64-3.42,27.82-5.11-.83-6.28-1.63-12.36-2.45-18.56-.06-.04-.26-.23-.5-.32-17.73-6.85-35.67-13.21-52.28-22.64-.78-.44-2.05-.47-2.93-.18-4.84,1.56-9.6,3.37-14.45,4.9-3.46,1.09-6.13,3.04-8.34,5.92-3.34,4.36-6.8,8.63-10.42,12.76-4.64,5.29-8.27,11.16-11.25,17.52-3.35,7.15-6.79,14.27-10.5,21.24-2.5,4.7-4.19,9.54-4.68,14.82-1.26,13.47-2.6,26.94-3.71,40.42-.38,4.66-.5,9.39-.14,14.05,.68,8.76,6.85,12.42,15.03,9.17,4.49-1.78,8.19-4.75,10.57-8.92,2.44-4.28,4.83-8.71,6.37-13.37,3.03-9.13,5.46-18.45,8.14-27.69-11.3-3.21-17.56-8.8-17.04-15.68,.97,1.15,1.73,2.02,2.44,2.91,3.58,4.49,7.95,7.87,13.31,10.05,2.09,.85,3.44,.55,4.85-1.19,5.21-6.46,10.58-12.8,15.79-19.27,4.36-5.42,8.58-10.96,12.87-16.45-9.13-7.62-14.74-15.82-14.31-21.82Zm81.58,52.27c-7.56-11.99-12.92-24.34-16.81-37.43-1.01,.26-1.67,.35-2.26,.6-4.33,1.77-8.64,3.59-12.97,5.37-10.64,4.37-21.25,8.84-31.96,13.05-4.65,1.83-6.95,4.74-7.24,9.86-.45,7.75-1.5,15.46-2.27,23.19-.25,2.47-.42,4.95-.67,7.94,12.24-3.97,23.86-7.89,36.78-8.8-12.03-9.08-14.86-12.66-13.44-17.52,1.02,1.46,1.87,2.57,2.6,3.75,3.17,5.14,7.49,9.02,12.77,11.93,2.02,1.11,3.87,1.43,6.06,.49,9.58-4.11,19.2-8.12,29.42-12.44Zm37.9,8.12c1.71-8.98,2.23-17.61,1.53-26.33-.16-2.04-.94-3.58-2.74-4.57-4.91-2.69-9.74-5.56-14.78-8-4.68-2.27-9.62-4.01-14.39-6.11-8.16-3.6-15.46-8.47-21.66-14.93-.41-.43-.95-.74-2.12-1.63,.33,3.15,.37,5.55,.86,7.84,3.77,17.73,10.99,34.03,20.66,49.29,1.5,2.37,3.14,4.66,4.93,6.82,.66,.79,1.96,1.56,2.92,1.51,8.27-.49,16.45-1.69,24.78-3.89Zm-111.21,65.48c5.09,11.49,9.85,22.38,14.74,33.21,.93,2.05,2.17,4.01,3.52,5.82,2.96,3.94,6.26,4.56,10.51,2.1,4.24-2.45,7.01-6.18,8.64-10.71,3.19-8.87,2.57-17.79,.36-27-12.65-.21-25.07-.33-37.77-3.43Zm13.78-18.77c-.8-4.73-1.55-9.47-2.4-14.19-.44-2.43-1.85-3.96-4.36-4.66-5.86-1.62-11.81-2.32-17.85-1.98-1.28,.07-2.77,.98-3.69,1.95-5.37,5.68-6.7,12.55-5.63,20.1,.67,4.7,7.11,10.8,12.61,10.55,4.72-.21,9.32-.66,13.83-2.02q7.18-2.18,7.5-9.74Zm32.13,22.2c4.24,6.43,8.08,12.36,12.05,18.21,1.27,1.87,2.76,3.62,4.36,5.22,2.29,2.27,5.04,2.79,8.14,1.68,2.63-.94,4.81-2.45,6.21-4.83,4.03-6.86,4.09-14.13,2.32-21.93-11.1,.56-21.88,1.09-33.09,1.66Zm6.93-64.51c9.32,.49,18.63,.51,28.35-.1-2.57-3.59-4.86-6.78-6.97-9.73-7.21,3.31-14.29,6.57-21.37,9.83Zm-50.38-31.87c10.24-4.08,19.67-7.84,29.1-11.59-3.98,.06-7.8,.63-11.63,1.11-3.82,.48-7.65,.89-11.63,1.34-1.77,2.77-3.63,5.67-5.85,9.14Z"/>
    <path class="cls-10" d="M699.39,416.54c-.2,6.32-.9,12.42-.46,18.44,.44,6,2.03,11.91,2.39,18.21-.61-.91-1.42-1.74-1.8-2.73-4.03-10.6-4.15-21.36-1.18-32.22,.16-.57,.64-1.06,1.04-1.7Z"/>
    <g>
      <path class="cls-18" d="M452.13,299.99c3.57,1.8,6.78,3.38,9.96,5.03,3.21,1.66,6.39,3.39,9.58,5.08,4.69,2.48,8.19,6.15,10.03,11.09,2.34,6.26,4.71,12.56,6.35,19.03,2.7,10.64,4.88,21.41,7.16,32.15,.52,2.47,.8,5.05,.78,7.58-.02,4.08-1.96,6.19-6.04,6.65-6.15,.69-11.66-.78-16.32-5.1-1.33-1.24-2.91-2.3-4.55-3.08-3.96-1.89-7.25-4.58-10.05-7.88-3.81-4.49-7.49-9.08-11.31-13.75-6.74,5.55-13.5,11.12-20.57,16.94,1.78,3.82,3.73,7.91,5.58,12.04,2.09,4.64,4.21,9.27,6.09,14,.93,2.34,1.61,4.86,1.93,7.36,.79,6.18-2.4,10.03-8.57,9.87-3.25-.08-6.64-.94-9.67-2.16-5.77-2.31-10-6.68-13.34-11.82-2.33-3.59-4.35-7.38-6.51-11.08-.66-1.13-1.32-2.26-1.86-3.19-10.02,6.73-19.74,13.37-29.58,19.82-5.71,3.74-11.58,7.25-17.49,10.68-2.42,1.4-4.26,3.05-5.24,5.72-.59,1.62-1.47,3.15-2.32,4.68-2.69,4.86-6.19,8.91-10.75,12.26-30.18,22.12-62.59,40.27-96.89,55.12-2.09,.9-4.22,1.7-6.36,2.48-4.29,1.57-8.62,1.8-12.98,.21-.61-.22-1.25-.35-2.03-.56-1.18,2.21-2.31,4.32-3.44,6.43-3.01,5.62-7.37,9.71-13.14,12.52-15.95,7.76-32.51,13.95-49.52,18.77-24.98,7.08-50.14,13.54-75.25,20.14-9.45,2.48-18.99,4.64-28.49,6.91-1.26,.3-2.55,.43-3.97,.66-.67-2-.41-3.11,1.53-3.57,3.13-.74,6.24-1.54,9.35-2.36,29.38-7.75,58.83-15.29,88.13-23.34,17.82-4.9,35.09-11.49,52.07-18.87,8.98-3.9,15.23-10.15,19.87-19.01-12.7-7.73-22.52-18.17-27.26-32.52-39.3,13.15-78.97,23.31-118.52,33.87-7.11,1.9-14.26,3.69-21.39,5.52-1.15,.29-2.32,.5-3.46,.74-1.04-3.4-1.08-3.53,1.93-4.38,10.31-2.91,20.64-5.73,30.97-8.56,35.64-9.76,71.28-19.51,106.92-29.28,.76-.21,1.48-.54,2.46-.9-2.59-13.36-2.34-26.22,6.68-37.73-3.32-1.8-6.45-2.09-9.62-1.61-5.03,.75-10.01,1.79-15.04,2.6-16.53,2.65-33.11,4.98-49.58,7.94-22.01,3.95-43.93,8.37-65.89,12.58-2.99,.57-5.99,1.11-8.96,1.66-.7-3.51-.72-3.6,2.38-4.29,9.02-1.99,18.06-3.92,27.09-5.84,29.88-6.34,60.01-11.25,90.26-15.42,5.3-.73,10.6-1.58,15.87-2.52,5.33-.94,10.41-.57,15.19,2.43,13.11-13.03,29.24-21.73,44.18-32.09,21.14-14.65,42.15-29.48,63.29-44.14,9.02-6.26,18.09-12.46,27.38-18.31,6.8-4.28,14.04-7.81,22.13-9.2,.96-.17,1.9-1.27,2.58-2.15,4.39-5.57,8.54-11.34,13.1-16.77,3.45-4.12,7.5-7.64,12.79-9.43,.86-.29,1.63-1.28,2.14-2.12,5.19-8.55,15.38-12.17,24.76-8.33,3.03,1.24,5.29,.97,8.19-.39,9.21-4.32,18.64-8.16,27.93-12.29,6.3-2.8,12.83-3.72,19.62-2.91,15.71,1.89,31.48,2.84,47.29,3.3,2.13,.06,4.28,.33,6.38,.74,4.09,.8,5.9,3.33,5.57,7.49-.29,3.59-2.02,6.56-4.9,8.4-3.46,2.22-7.17,4.18-11.02,5.59-6.59,2.43-13.61,2.83-20.58,3.13-5.08,.22-10.19,.03-15.27,.28-2.08,.1-4.21,.63-6.15,1.4-3.11,1.23-6.09,2.78-9.08,4.27-.79,.39-1.47,1.03-2.55,1.81Zm-217.28,167.97c20.84-8.13,92.97-58.1,97.41-67.04-2.79-1.01-5.79-1.73-8.44-3.13-3.71-1.96-6.63-4.97-9.04-8.42-3.51-5.03-4.33-10.37-1.24-15.86,2.36-4.2,4.77-8.4,7.56-12.31,8.47-11.9,17.13-23.65,25.71-35.47,.75-1.03,1.46-2.08,2.19-3.12-2.79,.52-5.31,1.4-7.52,2.77-10.36,6.41-21.01,12.42-30.86,19.55-27.25,19.72-55.22,38.36-83.41,56.69-5.73,3.72-11.46,7.45-16.96,11.49-3.98,2.92-7.82,6.12-11.31,9.61-5.52,5.54-9.16,12.21-10.07,20.11-1.63,14.01,1.92,26.55,10.82,37.53,.48,.59,1.13,1.05,1.71,1.58,4.3-1.61,8.41-3.22,12.57-4.66,1.99-.69,2.86-1.8,3.31-3.93,1.64-7.68,9.2-10.73,15.81-6.57,.56,.35,1.1,.74,1.75,1.18Zm-32.55,15.46c6.04,5.9,12.02,11.09,19.94,13.54,2.84,.88,5.6,.34,8.28-.57,2.78-.95,5.52-2.06,8.21-3.26,32.52-14.5,63.33-31.95,92.26-52.76,7.63-5.49,13.18-12.05,15.96-20.95,1.75-5.62,3.7-11.21,4.94-16.94,1.68-7.71,2.77-15.56,4.08-23.35,.03-.15-.26-.36-.59-.79-32.17,40.12-74.19,67.45-118.63,91.5,1.93,7.76,.36,12.56-4.82,15.03-2.25,1.07-4.57,1.32-7.04,.74-4.04-.95-6.15-3.97-7.94-7.42-4.82,1.73-9.46,3.39-14.65,5.25Zm150.74-66.97c15.38-10.22,30.77-20.45,46.69-31.03-8.19-5.45-15.92-10.61-23.74-15.81-5.28,2.53-10.67,5.12-16.16,7.76-1.37,13.12-2.77,26.14-6.79,39.08Zm-8.13-67.54c-9.77,12.78-17.2,26.7-25.35,40.35,2.06,2.89,4.93,4.75,8.04,6.34,3.09,1.58,5.98,1.34,8.49-1.08,2.4-2.32,4.78-4.68,6.97-7.19,7.83-8.96,15.54-18.01,23.38-26.96,1.33-1.52,1.07-2.73,.3-4.17-8.67,1.85-12.83,.46-21.83-7.3Zm95-15.97c2.08-3.58,3.8-6.54,5.6-9.65-2.87-2.93-5.83-6.09-3.56-11.18-12.4-4.6-24.51-9.1-36.72-13.63-5.95,6.29-8.39,13.34-6.69,21.69,13.77,5.19,27.36,9.94,41.36,12.77Zm7.75-7.88c-1.18,1.78-2.25,3.28-3.21,4.85-1.39,2.25-1.42,4.26,.37,6.58,3.26,4.23,6.04,8.84,9.19,13.16,6.18,8.46,13.13,16.25,21.24,22.91,2.25,1.85,4.85,3.33,7.42,4.72,1.69,.91,5.38-.17,6.65-1.63,1.54-1.79,.54-3.52-.24-5.22-.39-.85-.88-1.66-1.38-2.45-8.1-12.77-16.2-25.54-24.33-38.29-.77-1.21-1.68-2.34-2.57-3.58-4.61,3.53-8.59,1.32-13.14-1.05Zm-61.71,6.54c-1.79,1.07-3.04,1.85-4.31,2.57-5.22,2.94-8.03,7.67-9.81,13.18-.5,1.53-.41,2.72,.94,3.91,8.83,7.79,17.54,15.7,27.46,22.13,.98,.63,2.04,1.14,2.98,1.66,2.93-3.23,5.67-6.25,8.21-9.05-1.18-2.45-2.47-4.65-3.32-7-1.11-3.06,1.09-4.88,3.39-6.62-8.64-7.02-17.03-13.84-25.53-20.75Zm17.35-34.14c-2.18-.91-3.97-1.83-5.87-2.39-2.81-.83-5.69-1.4-8.55-2.07-8.48-1.99-15.71,2.75-19.28,11.25-1.38,3.28-.65,6.49,.22,9.79,.72,2.74,2.38,4.27,4.73,5.5,1.28,.67,2.3,1.82,3.53,2.62,2.89,1.88,5.64,4.35,8.82,5.32,3.31,1.01,7.06,.54,10.7,.73-6.21-13.38-2.51-23.94,5.7-30.74Zm-20.27,32.26c-2.37-1.67-4.46-2.86-6.19-4.44-3.59-3.27-7.87-4.9-12.5-5.89-3.98-.85-7.46,.14-10.32,2.93-1.81,1.76-3.46,3.72-4.98,5.74-3.8,5.05-4.16,10.68-1.67,16.25,2.53,5.65,7.21,8.83,13.48,9.27,2.09,.15,4.29,.32,6.14-1.31,1.44-9.99,4.17-19.17,16.04-22.55Zm73.56-56.06c.79,2.32,1.48,4.19,2.05,6.09,.63,2.12,2.01,2.87,4.17,2.93,11.91,.36,23.84,.94,35.67-.85,5.92-.89,11.73-2.57,17.57-3.95,2.04-.48,3.3-1.61,3.04-3.97-.24-2.13-.98-3.08-3.59-3.61-1.69-.34-3.45-.42-5.18-.53-12.55-.78-25.1-1.51-37.65-2.3-3.31-.21-6.62-.58-10.16-.9-.07,3.89-2.43,5.71-5.92,7.08Zm-50.39,103.43c4.22,8.89,8.31,17.31,13.97,24.81,2.72,3.61,5.94,6.85,8.96,10.23,1.73,1.94,3.81,2.25,6.17,1.21,2.39-1.06,2.92-3.18,2.59-5.34-.45-3.01-.94-6.14-2.15-8.89-4.23-9.66-8.77-19.18-12.91-28.13-3.43-.74-6.22-1.34-9.55-2.05-2.06,2.38-4.49,5.18-7.09,8.17Zm7.79-95.17c.47,.41,.72,.74,1.05,.89,7.52,3.49,15.05,6.97,22.59,10.41,.68,.31,1.61,.59,2.25,.37,6.49-2.22,12.41-5.44,17.2-10.13-.76-3.3-1.44-6.24-2.14-9.33-4.42,.04-9.09,.94-11.77-3.81-9.78,3.88-19.33,7.68-29.19,11.59Zm-3.83,65.19c7.02,6.84,12.89,13.97,15.91,23.69,6.73-6.33,13.71-11.24,19.6-17.36-.81-1.24-1.54-2.08-1.96-3.04-3.1-6.99-9.71-8.21-16.07-9.78-.7-.17-1.59,.05-2.3,.33-4.84,1.93-9.66,3.92-15.18,6.17Zm-1.09-50.51c1.69,.59,3.06,1.05,4.42,1.54,9.53,3.47,19.12,6.79,28.56,10.49,6.22,2.44,12.22,5.43,16.99,10.56,1.23-.92,2.35-1.76,3.44-2.57-2.62-4.86-2.63-4.89-1.26-9-14.36-6.62-28.75-13.25-43.08-19.86q-7.02,4.41-9.07,8.84Zm81.53,70.54c-2.57-15.58-5.85-30.81-11.96-45.34-6.34,3.47-10.33-1.08-14.94-3.73-1,1.27-1.87,2.38-2.53,3.22,9.99,15.56,19.71,30.7,29.43,45.84Zm-172.13,20.9c8.45-14.08,14.98-28.72,25.65-40.46-.9-3.06-1.75-5.93-2.67-9.06-.56,.58-1.06,.99-1.42,1.5-6.41,9.23-12.85,18.43-19.16,27.72-1.64,2.42-2.93,5.1-4.22,7.74-2.09,4.29-1.32,8.28,1.82,12.56Zm83.98-11.48c-11.62-6.92-21.93-15.3-31.16-25.28-2.11,6.51-1.28,9.7,3.16,13.5,7.45,6.37,15.45,11.96,23.82,17.02,.53,.32,1.15,.5,1.88,.81,.79-2.09,1.49-3.93,2.29-6.05Zm40.02-40.31c-.87,3.86-1.05,6.54,.91,9.21,2.37,3.23,4.27,6.82,6.73,9.97,4.19,5.37,8.48,10.68,13.05,15.73,3.49,3.86,7.96,6.29,13.3,6.71,.65,.05,1.31-.2,2.4-.38-15.11-11.21-26.2-25.29-36.39-41.24Zm-43.45-14.31c1.05,5.31,2.44,9.25,7.83,10.12,1.83,.3,3.57,1.12,5.37,1.61,7.87,2.14,15.76,4.24,23.64,6.37,1.22,.33,2.42,.71,3.89,1.15v-6.44c-13.9-2.51-27.3-6.55-40.73-12.81Zm7.06-26.11c1.12-5.33,4.64-7.76,9.13-9.35-11.63-7.95-25.08-6.39-29.07,2.12,6.46,2.34,12.95,4.7,19.94,7.23Zm54.61-12.21c2.36,2.73,3.72,5.52,6.91,5.48,9.62-.12,19.25-.22,28.85-.83,5.61-.35,11.04-2.04,15.97-4.92,1.14-.67,2.14-1.56,3.21-2.35-18.06,3.86-35.91,5.36-54.93,2.62Zm-55.73,95.64c-1.13,3.17-3.59,4.9-1.83,7.81,2.84,4.69,5.49,9.51,8.43,14.14,2.83,4.47,6.48,8.19,11.33,10.54,1.25,.61,2.61,1,3.92,1.49-9.01-10.03-15.23-21.57-21.84-33.98Zm2.58-34.55c4.78-1.51,9.11-3.31,13.7-5.78-15.71-5.93-24.7-8.15-29.33-7.26,5.19,4.33,10.3,8.6,15.62,13.04Zm-187.66,130.75c-.03,4.26,3.37,7.63,7.67,7.58,4.09-.04,7.45-3.28,7.57-7.33,.13-4.2-3.29-7.78-7.46-7.81-4.24-.03-7.75,3.38-7.78,7.56Zm229.23-176.87c4.8-2.83,9.36-5.51,13.89-8.17-1.88-1.82-3.49-3.39-4.91-4.77-5.05,3.14-10.32,6.41-15.71,9.76,2.14,1.01,4.3,2.04,6.73,3.19Zm10.05,25.68c-3.58-5.94-9.07-8.68-15.09-11.05-.67,3.95,1.11,6.87,6.06,10.06,2.62,1.69,5.35,3.65,9.03,.98Zm4.04-14.76c-.4,3.3,1.8,6.51,6.64,9.22,2.18,1.22,4.55,2.95,7.13,.56-2.47-4.82-8.84-9.27-13.77-9.77Zm-95.13,52.59c-2.86,3.81-5.54,7.37-8.21,10.92,.15,.21,.31,.42,.46,.64,4.52-1.92,9.05-3.84,13.86-5.89-2.13-1.98-3.96-3.68-6.11-5.67Zm112.65,18.34c2.64,3.14,4.08,3.91,6.97,3.96,5.45,.1,7.36-3.22,4.66-8.33-2.94,3.53-7.13,3.8-11.62,4.37Zm-35.31-110.93c2.31,2.63,5.06,3.23,9.47,2.07,2.47-.65,4.81-1.55,5.12-4.93-5.31-.81-10.02,.41-14.59,2.86Zm-24.37,96.5c-1.98-3.26-3.78-6.45-5.82-9.49-.93-1.39-2.67-1.38-3.87-.34-1.17,1.01-.94,2.13-.1,3.17,1.5,1.87,2.95,3.79,4.62,5.5,1.2,1.22,2.69,2.23,5.18,1.16Zm-56.02-58.6c-3.14,2.59-5.41,5.57-6.41,8.44h8.06c-.54-2.76-1.07-5.45-1.65-8.44Zm111.14,72.58c.19,1.76,1.03,2.39,2.24,2.39,.16-.27,.32-.55,.48-.82-.91-.52-1.81-1.05-2.72-1.57Z"/>
      <path class="cls-18" d="M167.68,461.59c-3.51-.09-6.33-3-6.29-6.48,.04-3.48,3.21-6.54,6.81-6.58,3.23-.03,6.26,3.18,6.22,6.59-.04,3.64-3.08,6.56-6.74,6.47Zm1.14-3.86c.45-.61,1.5-1.49,1.78-2.57,.36-1.4-1.21-2.73-2.8-2.7-1.63,.03-2.44,.99-2.53,2.52-.09,1.49,1.32,2.81,3.55,2.75Z"/>
      <path class="cls-18" d="M231.25,475.67c-1.58,1.15-2.45,2.19-3.5,2.45-1.43,.36-2.88-1.23-2.71-2.68,.18-1.55,1.2-2.57,2.68-2.24,1.06,.24,1.93,1.3,3.54,2.47Z"/>
    </g>
  </g>
  <g>
    <rect class="cls-18" x="833.35" y="590.12" width="206.08" height="247.88"/>
    <g>
      <path class="cls-10" d="M40.83,693.75l7.94-17.61c8.52,6.21,21.22,10.54,33.35,10.54,13.86,0,19.49-4.62,19.49-10.83,0-18.91-58.76-5.92-58.76-43.46,0-17.18,13.86-31.47,42.59-31.47,12.7,0,25.7,3.03,35.08,8.95l-7.22,17.76c-9.38-5.34-19.06-7.94-28.01-7.94-13.86,0-19.2,5.2-19.2,11.55,0,18.62,58.76,5.78,58.76,42.88,0,16.89-14,31.33-42.88,31.33-16.03,0-32.2-4.76-41.15-11.7Z"/>
      <path class="cls-10" d="M140.88,602.65h23.39v101.06h-23.39v-101.06Z"/>
      <path class="cls-10" d="M280.92,676.13c0,17.47-13.86,27.57-40.42,27.57h-52.26v-101.06h49.38c25.26,0,38.26,10.54,38.26,26.28,0,10.11-5.2,17.9-13.43,22.23,11.26,3.61,18.48,12.27,18.48,24.98Zm-69.44-55.87v23.82h23.24c11.41,0,17.61-4.04,17.61-11.98s-6.21-11.84-17.61-11.84h-23.24Zm45.91,53.42c0-8.52-6.5-12.56-18.62-12.56h-27.29v24.98h27.29c12.13,0,18.62-3.75,18.62-12.42Z"/>
      <path class="cls-10" d="M363.06,703.71l-19.49-28.15h-21.51v28.15h-23.39v-101.06h43.74c27,0,43.89,14,43.89,36.67,0,15.16-7.65,26.28-20.79,31.91l22.67,32.48h-25.12Zm-21.95-82h-19.06v35.23h19.06c14.29,0,21.51-6.64,21.51-17.61s-7.22-17.61-21.51-17.61Z"/>
      <path class="cls-10" d="M471.34,682.05h-46.92l-8.95,21.66h-23.97l45.04-101.06h23.1l45.19,101.06h-24.54l-8.95-21.66Zm-7.36-17.76l-16.03-38.69-16.03,38.69h32.05Z"/>
      <path class="cls-10" d="M582.21,651.59h21.37v41c-11.12,8.37-26.42,12.85-40.86,12.85-31.76,0-55.15-21.8-55.15-52.26s23.39-52.26,55.58-52.26c17.76,0,32.48,6.06,42.3,17.47l-15.01,13.86c-7.36-7.8-15.88-11.41-26.13-11.41-19.63,0-33.06,13.14-33.06,32.34s13.43,32.34,32.77,32.34c6.35,0,12.27-1.15,18.19-4.33v-29.6Z"/>
      <path class="cls-10" d="M703.48,684.94v18.77h-78.25v-101.06h76.37v18.77h-53.13v21.94h46.92v18.19h-46.92v23.39h55.01Z"/>
      <path class="cls-10" d="M715.46,653.18c0-30.46,23.39-52.26,54.86-52.26,17.47,0,32.05,6.35,41.58,17.9l-15.01,13.86c-6.79-7.8-15.3-11.84-25.41-11.84-18.91,0-32.34,13.28-32.34,32.34s13.43,32.34,32.34,32.34c10.11,0,18.62-4.04,25.41-11.98l15.01,13.86c-9.53,11.69-24.11,18.05-41.72,18.05-31.33,0-54.72-21.8-54.72-52.26Z"/>
      <path class="cls-10" d="M356.71,782.89h-26.28v25.84h-12.13v-25.84h-26.28v-11.41h26.28v-25.99h12.13v25.99h26.28v11.41Z"/>
      <path class="cls-10" d="M376.2,817.69l7.94-17.61c8.52,6.21,21.22,10.54,33.35,10.54,13.86,0,19.49-4.62,19.49-10.83,0-18.91-58.76-5.92-58.76-43.46,0-17.18,13.86-31.47,42.59-31.47,12.7,0,25.7,3.03,35.08,8.95l-7.22,17.76c-9.38-5.34-19.06-7.94-28.01-7.94-13.86,0-19.2,5.2-19.2,11.55,0,18.62,58.76,5.78,58.76,42.88,0,16.89-14,31.33-42.88,31.33-16.03,0-32.2-4.76-41.15-11.7Z"/>
      <path class="cls-10" d="M568.93,800.07c0,17.47-13.86,27.57-40.42,27.57h-52.26v-101.06h49.38c25.26,0,38.26,10.54,38.26,26.28,0,10.11-5.2,17.9-13.43,22.23,11.26,3.61,18.48,12.27,18.48,24.98Zm-69.44-55.87v23.82h23.24c11.41,0,17.61-4.04,17.61-11.98s-6.21-11.84-17.61-11.84h-23.24Zm45.91,53.42c0-8.52-6.5-12.56-18.62-12.56h-27.29v24.98h27.29c12.13,0,18.62-3.75,18.62-12.42Z"/>
      <path class="cls-10" d="M606.17,745.64h-32.34v-19.06h88.07v19.06h-32.34v82h-23.39v-82Z"/>
      <path class="cls-10" d="M674.46,726.59h23.39v101.06h-23.39v-101.06Z"/>
      <path class="cls-10" d="M715.46,777.12c0-30.46,23.39-52.26,54.86-52.26,17.47,0,32.05,6.35,41.58,17.9l-15.01,13.86c-6.79-7.8-15.3-11.84-25.41-11.84-18.91,0-32.34,13.28-32.34,32.34s13.43,32.34,32.34,32.34c10.11,0,18.62-4.04,25.41-11.98l15.01,13.86c-9.53,11.69-24.11,18.05-41.72,18.05-31.33,0-54.72-21.8-54.72-52.26Z"/>
    </g>
    <g>
      <path class="cls-2" d="M927.09,696.5v9.38h-70.89v-7.48l42.01-41.79c11.41-11.44,13.57-18.33,13.57-25.36,0-11.88-8.23-19.21-23.68-19.21-11.84,0-20.93,3.67-27.57,11.44l-7.36-6.45c7.8-9.38,20.36-14.66,35.81-14.66,20.5,0,33.49,10.56,33.49,27.71,0,9.82-3.03,18.62-16.6,32.11l-34.36,34.31h55.58Z"/>
      <path class="cls-2" d="M939.5,654.45c0-32.2,16.89-51.4,40.28-51.4s40.42,19.2,40.42,51.4-17.04,51.4-40.42,51.4-40.28-19.2-40.28-51.4Zm70.02,0c0-27-12.13-41.87-29.74-41.87s-29.74,14.87-29.74,41.87,12.13,41.87,29.74,41.87,29.74-14.87,29.74-41.87Z"/>
      <path class="cls-2" d="M926.22,815.66v9.18h-70.89v-7.31l42.01-40.87c11.41-11.18,13.57-17.93,13.57-24.81,0-11.62-8.23-18.79-23.68-18.79-11.84,0-20.93,3.59-27.57,11.19l-7.36-6.31c7.8-9.18,20.36-14.34,35.81-14.34,20.5,0,33.49,10.32,33.49,27.1,0,9.61-3.03,18.21-16.6,31.41l-34.36,33.56h55.58Z"/>
      <path class="cls-2" d="M1020.49,794.88c0,16.67-12.27,29.5-36.67,29.5-14.58,0-28.59-4.99-36.38-12.82l5.05-8.12c6.5,6.7,18.19,11.54,31.33,11.54,16.75,0,25.99-7.69,25.99-20.09s-8.52-19.81-27.29-19.81h-7.22v-7.55l28.01-34.63h-51.68v-9.12h64.97v7.27l-28.59,35.48c21.66,1.14,32.48,12.4,32.48,28.36Z"/>
    </g>
    <g>
      <path class="cls-10" d="M600.01,864.31h-14.28l-2.96,6.72h-3.95l12.17-26.87h3.8l12.21,26.87h-4.03l-2.96-6.72Zm-1.34-3.07l-5.8-13.17-5.8,13.17h11.59Z"/>
      <path class="cls-10" d="M621.39,850.5v3.57c-.31-.04-.58-.04-.84-.04-3.95,0-6.41,2.42-6.41,6.87v10.13h-3.69v-20.34h3.53v3.42c1.3-2.38,3.84-3.61,7.41-3.61Z"/>
      <path class="cls-10" d="M642,858.75v12.28h-3.49v-2.69c-1.23,1.84-3.49,2.92-6.68,2.92-4.61,0-7.52-2.46-7.52-5.99,0-3.26,2.11-5.95,8.18-5.95h5.83v-.73c0-3.11-1.8-4.91-5.45-4.91-2.42,0-4.87,.84-6.45,2.19l-1.53-2.76c2.11-1.69,5.14-2.61,8.41-2.61,5.56,0,8.71,2.69,8.71,8.25Zm-3.69,6.07v-2.84h-5.68c-3.65,0-4.68,1.42-4.68,3.15,0,2.03,1.69,3.3,4.49,3.3s4.95-1.27,5.87-3.61Z"/>
      <path class="cls-10" d="M647.06,860.86c0-6.07,4.49-10.36,10.75-10.36,3.65,0,6.68,1.5,8.29,4.34l-2.8,1.8c-1.3-2-3.3-2.92-5.53-2.92-3.99,0-6.99,2.8-6.99,7.14s2.99,7.18,6.99,7.18c2.23,0,4.22-.92,5.53-2.92l2.8,1.76c-1.61,2.84-4.64,4.38-8.29,4.38-6.26,0-10.75-4.34-10.75-10.4Z"/>
      <path class="cls-10" d="M686.98,858.75v12.28h-3.49v-2.69c-1.23,1.84-3.49,2.92-6.68,2.92-4.61,0-7.52-2.46-7.52-5.99,0-3.26,2.11-5.95,8.18-5.95h5.83v-.73c0-3.11-1.8-4.91-5.45-4.91-2.42,0-4.87,.84-6.45,2.19l-1.53-2.76c2.11-1.69,5.14-2.61,8.41-2.61,5.56,0,8.71,2.69,8.71,8.25Zm-3.69,6.07v-2.84h-5.68c-3.65,0-4.68,1.42-4.68,3.15,0,2.03,1.69,3.3,4.49,3.3s4.95-1.27,5.87-3.61Z"/>
      <path class="cls-10" d="M686.78,877.48l1.19-2.84c.73,.61,1.8,.96,2.99,.96,1.96,0,3.03-1.23,3.03-3.57v-21.34h3.69v21.26c0,4.14-2.3,6.76-6.49,6.76-1.69,0-3.38-.38-4.41-1.23Zm6.56-33.09c0-1.34,1.07-2.42,2.49-2.42s2.5,1.04,2.5,2.34c0,1.38-1.04,2.46-2.5,2.46s-2.49-1.04-2.49-2.38Z"/>
      <path class="cls-10" d="M723.67,850.69v20.34h-3.49v-3.07c-1.5,2.11-4.03,3.3-6.91,3.3-5.26,0-8.75-2.88-8.75-8.87v-11.71h3.69v11.28c0,3.99,2,5.99,5.49,5.99,3.84,0,6.29-2.38,6.29-6.76v-10.52h3.69Z"/>
      <path class="cls-10" d="M739.71,858.9h10.33v3.19h-10.33v-3.19Z"/>
      <path class="cls-10" d="M764.11,867.96l1.42-2.99c2,1.8,5.41,3.11,8.87,3.11,4.64,0,6.64-1.8,6.64-4.15,0-6.56-16.27-2.42-16.27-12.4,0-4.14,3.22-7.68,10.29-7.68,3.15,0,6.41,.84,8.64,2.38l-1.27,3.07c-2.34-1.5-4.99-2.19-7.37-2.19-4.57,0-6.53,1.92-6.53,4.26,0,6.56,16.28,2.46,16.28,12.32,0,4.11-3.3,7.64-10.4,7.64-4.11,0-8.14-1.38-10.29-3.38Z"/>
      <path class="cls-10" d="M809.9,867.69v3.34h-19.5v-26.87h18.96v3.34h-15.12v8.25h13.47v3.26h-13.47v8.67h15.66Z"/>
    </g>
  </g>
</svg>