<?xml version="1.0" encoding="UTF-8"?>
<svg id="Layer_1" data-name="Layer 1" xmlns="http://www.w3.org/2000/svg" viewBox="0 0 1080 1080">
  <defs>
    <style>
      .cls-1 {
        fill: #fff;
      }

      .cls-2 {
        fill: #2d4569;
      }

      .cls-3 {
        fill: #e18559;
      }
    </style>
  </defs>
  <rect class="cls-3" x="833.63" y="395.5" width="206.37" height="248.23"/>
  <g>
    <path class="cls-2" d="M40,499.28l7.95-17.64c8.53,6.22,21.25,10.55,33.4,10.55,13.88,0,19.52-4.63,19.52-10.84,0-18.94-58.84-5.93-58.84-43.52,0-17.2,13.88-31.52,42.65-31.52,12.72,0,25.73,3.04,35.13,8.96l-7.23,17.78c-9.4-5.35-19.08-7.95-28.05-7.95-13.88,0-19.23,5.2-19.23,11.56,0,18.65,58.84,5.78,58.84,42.94,0,16.92-14.02,31.37-42.94,31.37-16.05,0-32.24-4.77-41.2-11.71Z"/>
    <path class="cls-2" d="M140.19,408.05h23.42v101.2h-23.42v-101.2Z"/>
    <path class="cls-2" d="M280.42,481.64c0,17.49-13.88,27.61-40.48,27.61h-52.34v-101.2h49.44c25.3,0,38.31,10.55,38.31,26.31,0,10.12-5.21,17.93-13.45,22.26,11.28,3.61,18.51,12.29,18.51,25.01Zm-69.54-55.95v23.85h23.28c11.42,0,17.64-4.05,17.64-12s-6.22-11.86-17.64-11.86h-23.28Zm45.97,53.49c0-8.53-6.51-12.58-18.65-12.58h-27.32v25.01h27.32c12.14,0,18.65-3.76,18.65-12.43Z"/>
    <path class="cls-2" d="M362.68,509.25l-19.52-28.19h-21.54v28.19h-23.42v-101.2h43.81c27.04,0,43.95,14.02,43.95,36.72,0,15.18-7.66,26.31-20.82,31.95l22.7,32.53h-25.16Zm-21.98-82.12h-19.08v35.28h19.08c14.31,0,21.54-6.65,21.54-17.64s-7.23-17.64-21.54-17.64Z"/>
    <path class="cls-2" d="M471.11,487.57h-46.99l-8.96,21.69h-24l45.11-101.2h23.13l45.25,101.2h-24.58l-8.96-21.69Zm-7.37-17.78l-16.05-38.75-16.05,38.75h32.1Z"/>
    <path class="cls-2" d="M582.14,457.06h21.4v41.06c-11.13,8.39-26.46,12.87-40.91,12.87-31.81,0-55.23-21.83-55.23-52.34s23.42-52.34,55.66-52.34c17.78,0,32.53,6.07,42.36,17.49l-15.04,13.88c-7.37-7.81-15.9-11.42-26.17-11.42-19.66,0-33.11,13.16-33.11,32.39s13.45,32.38,32.82,32.38c6.36,0,12.29-1.16,18.22-4.34v-29.64Z"/>
    <path class="cls-2" d="M703.58,490.46v18.79h-78.36v-101.2h76.48v18.79h-53.2v21.98h46.99v18.22h-46.99v23.42h55.08Z"/>
    <path class="cls-2" d="M715.57,458.65c0-30.51,23.42-52.34,54.94-52.34,17.49,0,32.1,6.36,41.64,17.93l-15.04,13.88c-6.8-7.81-15.32-11.86-25.45-11.86-18.94,0-32.38,13.3-32.38,32.39s13.45,32.38,32.38,32.38c10.12,0,18.65-4.05,25.45-12l15.04,13.88c-9.54,11.71-24.14,18.07-41.78,18.07-31.37,0-54.79-21.83-54.79-52.34Z"/>
    <path class="cls-2" d="M356.32,588.55h-26.31v25.88h-12.14v-25.88h-26.31v-11.42h26.31v-26.02h12.14v26.02h26.31v11.42Z"/>
    <path class="cls-2" d="M375.83,623.39l7.95-17.64c8.53,6.22,21.25,10.55,33.4,10.55,13.88,0,19.52-4.63,19.52-10.84,0-18.94-58.84-5.93-58.84-43.52,0-17.2,13.88-31.52,42.65-31.52,12.72,0,25.73,3.04,35.13,8.96l-7.23,17.78c-9.4-5.35-19.08-7.95-28.05-7.95-13.88,0-19.23,5.2-19.23,11.56,0,18.65,58.84,5.78,58.84,42.94,0,16.92-14.02,31.37-42.94,31.37-16.05,0-32.24-4.77-41.2-11.71Z"/>
    <path class="cls-2" d="M568.84,605.75c0,17.49-13.88,27.61-40.48,27.61h-52.34v-101.2h49.44c25.3,0,38.31,10.55,38.31,26.31,0,10.12-5.21,17.93-13.45,22.26,11.28,3.61,18.51,12.29,18.51,25.01Zm-69.54-55.95v23.85h23.28c11.42,0,17.64-4.05,17.64-12s-6.22-11.86-17.64-11.86h-23.28Zm45.97,53.49c0-8.53-6.51-12.58-18.65-12.58h-27.32v25.01h27.32c12.14,0,18.65-3.76,18.65-12.43Z"/>
    <path class="cls-2" d="M606.13,551.25h-32.38v-19.08h88.19v19.08h-32.38v82.12h-23.42v-82.12Z"/>
    <path class="cls-2" d="M674.51,532.16h23.42v101.2h-23.42v-101.2Z"/>
    <path class="cls-2" d="M715.57,582.77c0-30.51,23.42-52.34,54.94-52.34,17.49,0,32.1,6.36,41.64,17.93l-15.04,13.88c-6.8-7.81-15.32-11.86-25.45-11.86-18.94,0-32.38,13.3-32.38,32.39s13.45,32.38,32.38,32.38c10.12,0,18.65-4.05,25.45-12l15.04,13.88c-9.54,11.71-24.14,18.07-41.78,18.07-31.37,0-54.79-21.83-54.79-52.34Z"/>
  </g>
  <g>
    <path class="cls-1" d="M927.49,502.04v9.4h-70.99v-7.49l42.07-41.84c11.42-11.45,13.59-18.35,13.59-25.4,0-11.89-8.24-19.23-23.71-19.23-11.85,0-20.96,3.67-27.61,11.45l-7.37-6.46c7.81-9.4,20.38-14.68,35.86-14.68,20.53,0,33.54,10.57,33.54,27.75,0,9.84-3.04,18.65-16.63,32.15l-34.41,34.36h55.66Z"/>
    <path class="cls-1" d="M939.93,459.93c0-32.24,16.92-51.47,40.34-51.47s40.48,19.23,40.48,51.47-17.06,51.47-40.48,51.47-40.34-19.23-40.34-51.47Zm70.12,0c0-27.04-12.14-41.93-29.78-41.93s-29.78,14.89-29.78,41.93,12.14,41.93,29.78,41.93,29.78-14.89,29.78-41.93Z"/>
    <path class="cls-1" d="M926.63,621.36v9.19h-70.99v-7.32l42.07-40.93c11.42-11.2,13.59-17.95,13.59-24.84,0-11.63-8.24-18.81-23.71-18.81-11.85,0-20.96,3.59-27.61,11.2l-7.37-6.32c7.81-9.19,20.38-14.36,35.86-14.36,20.53,0,33.54,10.34,33.54,27.14,0,9.62-3.04,18.24-16.63,31.45l-34.41,33.6h55.66Z"/>
    <path class="cls-1" d="M1021.03,600.55c0,16.7-12.29,29.54-36.72,29.54-14.6,0-28.63-4.99-36.43-12.84l5.06-8.13c6.51,6.71,18.22,11.56,31.37,11.56,16.77,0,26.02-7.7,26.02-20.12s-8.53-19.83-27.32-19.83h-7.23v-7.56l28.05-34.68h-51.76v-9.13h65.06v7.28l-28.63,35.53c21.69,1.14,32.53,12.42,32.53,28.4Z"/>
  </g>
  <g>
    <path class="cls-2" d="M599.96,670.08h-14.3l-2.96,6.73h-3.96l12.18-26.91h3.81l12.22,26.91h-4.04l-2.96-6.73Zm-1.35-3.08l-5.8-13.18-5.8,13.18h11.61Z"/>
    <path class="cls-2" d="M621.37,656.25v3.57c-.31-.04-.58-.04-.85-.04-3.96,0-6.42,2.42-6.42,6.88v10.15h-3.69v-20.37h3.54v3.42c1.31-2.38,3.84-3.61,7.42-3.61Z"/>
    <path class="cls-2" d="M642.01,664.51v12.3h-3.5v-2.69c-1.23,1.84-3.5,2.92-6.69,2.92-4.61,0-7.53-2.46-7.53-6,0-3.27,2.11-5.96,8.19-5.96h5.84v-.73c0-3.11-1.81-4.92-5.46-4.92-2.42,0-4.88,.84-6.46,2.19l-1.54-2.77c2.11-1.69,5.15-2.61,8.42-2.61,5.57,0,8.73,2.69,8.73,8.26Zm-3.69,6.07v-2.84h-5.69c-3.65,0-4.69,1.42-4.69,3.15,0,2.04,1.69,3.31,4.5,3.31s4.96-1.27,5.88-3.61Z"/>
    <path class="cls-2" d="M647.08,666.62c0-6.07,4.5-10.38,10.76-10.38,3.65,0,6.69,1.5,8.3,4.34l-2.81,1.81c-1.31-2-3.31-2.92-5.53-2.92-4,0-7,2.81-7,7.15s3,7.19,7,7.19c2.23,0,4.23-.92,5.53-2.92l2.81,1.77c-1.61,2.84-4.65,4.38-8.3,4.38-6.27,0-10.76-4.34-10.76-10.42Z"/>
    <path class="cls-2" d="M687.05,664.51v12.3h-3.5v-2.69c-1.23,1.84-3.5,2.92-6.69,2.92-4.61,0-7.53-2.46-7.53-6,0-3.27,2.11-5.96,8.19-5.96h5.84v-.73c0-3.11-1.81-4.92-5.46-4.92-2.42,0-4.88,.84-6.46,2.19l-1.54-2.77c2.11-1.69,5.15-2.61,8.42-2.61,5.57,0,8.73,2.69,8.73,8.26Zm-3.69,6.07v-2.84h-5.69c-3.65,0-4.69,1.42-4.69,3.15,0,2.04,1.69,3.31,4.5,3.31s4.96-1.27,5.88-3.61Z"/>
    <path class="cls-2" d="M686.85,683.27l1.19-2.84c.73,.62,1.81,.96,3,.96,1.96,0,3.04-1.23,3.04-3.57v-21.37h3.69v21.29c0,4.15-2.31,6.76-6.5,6.76-1.69,0-3.38-.38-4.42-1.23Zm6.57-33.13c0-1.35,1.08-2.42,2.5-2.42s2.5,1.04,2.5,2.34c0,1.38-1.04,2.46-2.5,2.46s-2.5-1.04-2.5-2.38Z"/>
    <path class="cls-2" d="M723.79,656.44v20.37h-3.5v-3.08c-1.5,2.12-4.04,3.31-6.92,3.31-5.27,0-8.76-2.88-8.76-8.88v-11.72h3.69v11.3c0,4,2,6,5.5,6,3.84,0,6.3-2.38,6.3-6.76v-10.53h3.69Z"/>
    <path class="cls-2" d="M739.85,664.66h10.34v3.19h-10.34v-3.19Z"/>
    <path class="cls-2" d="M764.29,673.73l1.42-3c2,1.81,5.42,3.11,8.88,3.11,4.65,0,6.65-1.81,6.65-4.15,0-6.57-16.3-2.42-16.3-12.42,0-4.15,3.23-7.69,10.3-7.69,3.15,0,6.42,.84,8.65,2.38l-1.27,3.08c-2.34-1.5-5-2.19-7.38-2.19-4.57,0-6.53,1.92-6.53,4.27,0,6.57,16.3,2.46,16.3,12.34,0,4.11-3.31,7.65-10.42,7.65-4.11,0-8.15-1.38-10.3-3.38Z"/>
    <path class="cls-2" d="M810.15,673.47v3.34h-19.53v-26.91h18.99v3.34h-15.15v8.26h13.49v3.27h-13.49v8.69h15.68Z"/>
  </g>
</svg>