<?xml version="1.0" encoding="UTF-8"?>
<svg id="Layer_1" data-name="Layer 1" xmlns="http://www.w3.org/2000/svg" viewBox="0 0 1080 1080">
  <defs>
    <style>
      .cls-1 {
        fill: #fff;
      }
    </style>
  </defs>
  <path class="cls-1" d="M980.17,418.03c-17.64,0-29.78,14.89-29.78,41.92s12.14,41.92,29.78,41.92,29.77-14.89,29.77-41.92-12.14-41.92-29.77-41.92Zm0,0c-17.64,0-29.78,14.89-29.78,41.92s12.14,41.92,29.78,41.92,29.77-14.89,29.77-41.92-12.14-41.92-29.77-41.92Zm-146.6-22.5v248.17h206.33v-248.17h-206.33Zm92.97,235h-70.97v-7.32l42.07-40.92c11.41-11.2,13.58-17.94,13.58-24.83,0-11.63-8.24-18.82-23.7-18.82-11.85,0-20.96,3.6-27.61,11.21l-7.36-6.33c7.8-9.18,20.37-14.36,35.85-14.36,20.52,0,33.53,10.35,33.53,27.14,0,9.63-3.04,18.24-16.62,31.44l-34.4,33.6h55.65v9.19Zm.87-119.1h-70.97v-7.49l42.07-41.84c11.41-11.44,13.58-18.34,13.58-25.39,0-11.89-8.24-19.23-23.7-19.23-11.86,0-20.96,3.67-27.61,11.45l-7.38-6.46c7.81-9.4,20.39-14.69,35.85-14.69,20.52,0,33.54,10.57,33.54,27.75,0,9.83-3.04,18.64-16.62,32.15l-34.4,34.35h55.65v9.38Zm52.76-102.95c23.41,0,40.47,19.23,40.47,51.46s-17.06,51.46-40.47,51.46-40.34-19.23-40.34-51.46,16.91-51.46,40.34-51.46Zm4.04,221.58c-14.59,0-28.62-4.99-36.42-12.83l5.06-8.13c6.51,6.7,18.22,11.55,31.36,11.55,16.77,0,26.02-7.7,26.02-20.11s-8.52-19.84-27.31-19.84h-7.23v-7.55l28.04-34.66h-51.75v-9.14h65.06v7.28l-28.62,35.52c21.68,1.13,32.52,12.41,32.52,28.39s-12.29,29.52-36.72,29.52Zm-4.04-128.21c17.63,0,29.77-14.89,29.77-41.92s-12.14-41.92-29.77-41.92-29.78,14.89-29.78,41.92,12.14,41.92,29.78,41.92Zm0-83.83c-17.64,0-29.78,14.89-29.78,41.92s12.14,41.92,29.78,41.92,29.77-14.89,29.77-41.92-12.14-41.92-29.77-41.92Zm0,0c-17.64,0-29.78,14.89-29.78,41.92s12.14,41.92,29.78,41.92,29.77-14.89,29.77-41.92-12.14-41.92-29.77-41.92Z"/>
  <g>
    <path class="cls-1" d="M40.1,499.29l7.95-17.63c8.53,6.21,21.25,10.55,33.39,10.55,13.88,0,19.51-4.63,19.51-10.84,0-18.93-58.83-5.93-58.83-43.51,0-17.2,13.88-31.51,42.64-31.51,12.72,0,25.73,3.04,35.12,8.96l-7.23,17.78c-9.39-5.35-19.08-7.95-28.04-7.95-13.88,0-19.23,5.2-19.23,11.56,0,18.65,58.83,5.78,58.83,42.93,0,16.91-14.02,31.37-42.93,31.37-16.04,0-32.23-4.77-41.19-11.71Z"/>
    <path class="cls-1" d="M140.27,408.08h23.42v101.18h-23.42v-101.18Z"/>
    <path class="cls-1" d="M280.47,481.66c0,17.49-13.87,27.61-40.47,27.61h-52.32v-101.18h49.43c25.29,0,38.3,10.55,38.3,26.31,0,10.12-5.2,17.92-13.44,22.26,11.27,3.61,18.5,12.29,18.5,25.01Zm-69.52-55.94v23.85h23.27c11.42,0,17.63-4.05,17.63-12s-6.21-11.85-17.63-11.85h-23.27Zm45.97,53.48c0-8.53-6.51-12.57-18.64-12.57h-27.32v25.01h27.32c12.14,0,18.64-3.76,18.64-12.43Z"/>
    <path class="cls-1" d="M362.71,509.26l-19.51-28.19h-21.54v28.19h-23.42v-101.18h43.8c27.03,0,43.94,14.02,43.94,36.71,0,15.18-7.66,26.31-20.81,31.94l22.69,32.52h-25.15Zm-21.97-82.1h-19.08v35.27h19.08c14.31,0,21.54-6.65,21.54-17.63s-7.23-17.63-21.54-17.63Z"/>
    <path class="cls-1" d="M471.12,487.58h-46.98l-8.96,21.68h-24l45.1-101.18h23.12l45.24,101.18h-24.57l-8.96-21.68Zm-7.37-17.78l-16.04-38.74-16.04,38.74h32.09Z"/>
    <path class="cls-1" d="M582.12,457.08h21.39v41.05c-11.13,8.38-26.45,12.86-40.9,12.86-31.8,0-55.21-21.83-55.21-52.32s23.42-52.32,55.65-52.32c17.78,0,32.52,6.07,42.35,17.49l-15.03,13.88c-7.37-7.81-15.9-11.42-26.16-11.42-19.66,0-33.1,13.15-33.1,32.38s13.44,32.38,32.81,32.38c6.36,0,12.29-1.16,18.21-4.34v-29.63Z"/>
    <path class="cls-1" d="M703.54,490.47v18.79h-78.34v-101.18h76.46v18.79h-53.19v21.97h46.98v18.21h-46.98v23.42h55.07Z"/>
    <path class="cls-1" d="M715.53,458.67c0-30.5,23.42-52.32,54.92-52.32,17.49,0,32.09,6.36,41.63,17.92l-15.03,13.88c-6.79-7.81-15.32-11.85-25.44-11.85-18.93,0-32.38,13.3-32.38,32.38s13.44,32.38,32.38,32.38c10.12,0,18.64-4.05,25.44-12l15.03,13.88c-9.54,11.71-24.14,18.07-41.77,18.07-31.36,0-54.78-21.83-54.78-52.32Z"/>
    <path class="cls-1" d="M356.35,588.54h-26.31v25.87h-12.14v-25.87h-26.31v-11.42h26.31v-26.02h12.14v26.02h26.31v11.42Z"/>
    <path class="cls-1" d="M375.86,623.38l7.95-17.63c8.53,6.21,21.25,10.55,33.39,10.55,13.88,0,19.51-4.63,19.51-10.84,0-18.93-58.83-5.93-58.83-43.51,0-17.2,13.88-31.51,42.64-31.51,12.72,0,25.73,3.04,35.12,8.96l-7.23,17.78c-9.39-5.35-19.08-7.95-28.04-7.95-13.88,0-19.23,5.2-19.23,11.56,0,18.65,58.83,5.78,58.83,42.93,0,16.91-14.02,31.37-42.93,31.37-16.04,0-32.23-4.77-41.19-11.71Z"/>
    <path class="cls-1" d="M568.82,605.74c0,17.49-13.87,27.61-40.47,27.61h-52.32v-101.18h49.43c25.29,0,38.3,10.55,38.3,26.31,0,10.12-5.2,17.92-13.44,22.26,11.27,3.61,18.5,12.29,18.5,25.01Zm-69.52-55.94v23.85h23.27c11.42,0,17.63-4.05,17.63-12s-6.21-11.85-17.63-11.85h-23.27Zm45.97,53.48c0-8.53-6.51-12.57-18.64-12.57h-27.32v25.01h27.32c12.14,0,18.64-3.76,18.64-12.43Z"/>
    <path class="cls-1" d="M606.12,551.25h-32.38v-19.08h88.17v19.08h-32.38v82.1h-23.42v-82.1Z"/>
    <path class="cls-1" d="M674.49,532.17h23.42v101.18h-23.42v-101.18Z"/>
    <path class="cls-1" d="M715.53,582.76c0-30.5,23.42-52.32,54.92-52.32,17.49,0,32.09,6.36,41.63,17.92l-15.03,13.88c-6.79-7.81-15.32-11.85-25.44-11.85-18.93,0-32.38,13.3-32.38,32.38s13.44,32.38,32.38,32.38c10.12,0,18.64-4.05,25.44-12l15.03,13.88c-9.54,11.71-24.14,18.07-41.77,18.07-31.36,0-54.78-21.83-54.78-52.32Z"/>
  </g>
  <g>
    <path class="cls-1" d="M599.95,670.06h-14.3l-2.96,6.73h-3.96l12.18-26.9h3.8l12.22,26.9h-4.04l-2.96-6.73Zm-1.35-3.07l-5.8-13.18-5.8,13.18h11.61Z"/>
    <path class="cls-1" d="M621.35,656.22v3.58c-.31-.04-.58-.04-.84-.04-3.96,0-6.42,2.42-6.42,6.88v10.15h-3.69v-20.37h3.54v3.42c1.31-2.38,3.84-3.61,7.42-3.61Z"/>
    <path class="cls-1" d="M641.99,664.49v12.3h-3.5v-2.69c-1.23,1.84-3.5,2.92-6.69,2.92-4.61,0-7.53-2.46-7.53-6,0-3.27,2.12-5.96,8.19-5.96h5.84v-.73c0-3.11-1.8-4.92-5.46-4.92-2.42,0-4.88,.85-6.45,2.19l-1.54-2.77c2.11-1.69,5.15-2.61,8.42-2.61,5.57,0,8.72,2.69,8.72,8.26Zm-3.69,6.07v-2.84h-5.69c-3.65,0-4.69,1.42-4.69,3.15,0,2.04,1.69,3.3,4.5,3.3s4.96-1.27,5.88-3.61Z"/>
    <path class="cls-1" d="M647.05,666.6c0-6.07,4.5-10.38,10.76-10.38,3.65,0,6.69,1.5,8.3,4.34l-2.81,1.81c-1.3-2-3.3-2.92-5.53-2.92-4,0-6.99,2.81-6.99,7.15s3,7.19,6.99,7.19c2.23,0,4.23-.92,5.53-2.92l2.81,1.77c-1.61,2.84-4.65,4.38-8.3,4.38-6.26,0-10.76-4.34-10.76-10.41Z"/>
    <path class="cls-1" d="M687.02,664.49v12.3h-3.5v-2.69c-1.23,1.84-3.5,2.92-6.69,2.92-4.61,0-7.53-2.46-7.53-6,0-3.27,2.12-5.96,8.19-5.96h5.84v-.73c0-3.11-1.8-4.92-5.46-4.92-2.42,0-4.88,.85-6.45,2.19l-1.54-2.77c2.11-1.69,5.15-2.61,8.42-2.61,5.57,0,8.72,2.69,8.72,8.26Zm-3.69,6.07v-2.84h-5.69c-3.65,0-4.69,1.42-4.69,3.15,0,2.04,1.69,3.3,4.5,3.3s4.96-1.27,5.88-3.61Z"/>
    <path class="cls-1" d="M686.82,683.24l1.19-2.84c.73,.61,1.8,.96,3,.96,1.96,0,3.04-1.23,3.04-3.58v-21.37h3.69v21.29c0,4.15-2.31,6.76-6.5,6.76-1.69,0-3.38-.38-4.42-1.23Zm6.57-33.13c0-1.34,1.08-2.42,2.5-2.42s2.5,1.04,2.5,2.34c0,1.38-1.04,2.46-2.5,2.46s-2.5-1.04-2.5-2.38Z"/>
    <path class="cls-1" d="M723.75,656.42v20.37h-3.5v-3.07c-1.5,2.11-4.04,3.31-6.92,3.31-5.27,0-8.76-2.88-8.76-8.88v-11.72h3.69v11.3c0,4,2,5.99,5.5,5.99,3.84,0,6.3-2.38,6.3-6.76v-10.53h3.69Z"/>
    <path class="cls-1" d="M739.81,664.64h10.34v3.19h-10.34v-3.19Z"/>
    <path class="cls-1" d="M764.25,673.71l1.42-3c2,1.81,5.42,3.11,8.88,3.11,4.65,0,6.65-1.81,6.65-4.15,0-6.57-16.3-2.42-16.3-12.41,0-4.15,3.23-7.69,10.3-7.69,3.15,0,6.42,.85,8.65,2.38l-1.27,3.07c-2.34-1.5-5-2.19-7.38-2.19-4.57,0-6.53,1.92-6.53,4.27,0,6.57,16.3,2.46,16.3,12.34,0,4.11-3.3,7.65-10.42,7.65-4.11,0-8.15-1.38-10.3-3.38Z"/>
    <path class="cls-1" d="M810.09,673.44v3.34h-19.52v-26.9h18.98v3.34h-15.14v8.26h13.49v3.27h-13.49v8.68h15.68Z"/>
  </g>
</svg>